<?xml version="1.0" encoding="UTF-8"?>
<svg id="Layer_2" data-name="Layer 2" xmlns="http://www.w3.org/2000/svg" xmlns:xlink="http://www.w3.org/1999/xlink" viewBox="0 0 166.36 135.65">
  <defs>
    <style>
      .cls-1 {
        clip-path: url(#clippath-73);
      }

      .cls-2 {
        clip-path: url(#clippath-72);
      }

      .cls-3 {
        clip-path: url(#clippath-62);
      }

      .cls-4 {
        fill: #293267;
      }

      .cls-5 {
        clip-path: url(#clippath-45);
      }

      .cls-6 {
        clip-path: url(#clippath-63);
      }

      .cls-7 {
        clip-path: url(#clippath-20);
      }

      .cls-8 {
        clip-path: url(#clippath-11);
      }

      .cls-9 {
        clip-path: url(#clippath-16);
      }

      .cls-10 {
        clip-path: url(#clippath-59);
      }

      .cls-11 {
        fill: #5f677f;
      }

      .cls-12 {
        clip-path: url(#clippath-78);
      }

      .cls-13 {
        clip-path: url(#clippath-33);
      }

      .cls-14 {
        clip-path: url(#clippath-64);
      }

      .cls-15 {
        clip-path: url(#clippath-47);
      }

      .cls-16 {
        clip-path: url(#clippath-77);
      }

      .cls-17 {
        clip-path: url(#clippath-41);
      }

      .cls-18 {
        clip-path: url(#clippath-32);
      }

      .cls-19 {
        fill: #5e677e;
      }

      .cls-20 {
        clip-path: url(#clippath-87);
      }

      .cls-21 {
        clip-path: url(#clippath-83);
      }

      .cls-22 {
        fill: #405095;
      }

      .cls-23 {
        clip-path: url(#clippath-2);
      }

      .cls-24 {
        clip-path: url(#clippath-13);
      }

      .cls-25 {
        clip-path: url(#clippath-88);
      }

      .cls-26 {
        isolation: isolate;
      }

      .cls-27 {
        clip-path: url(#clippath-37);
      }

      .cls-28 {
        clip-path: url(#clippath-46);
      }

      .cls-29 {
        clip-path: url(#clippath-25);
      }

      .cls-30 {
        clip-path: url(#clippath-15);
      }

      .cls-31 {
        clip-path: url(#clippath-6);
      }

      .cls-32 {
        fill: #2a346a;
      }

      .cls-33 {
        clip-path: url(#clippath-76);
      }

      .cls-34 {
        clip-path: url(#clippath-40);
      }

      .cls-35 {
        clip-path: url(#clippath-26);
      }

      .cls-36 {
        clip-path: url(#clippath-81);
      }

      .cls-37 {
        fill: #5d667e;
      }

      .cls-38 {
        clip-path: url(#clippath-75);
      }

      .cls-39 {
        clip-path: url(#clippath-7);
      }

      .cls-40 {
        clip-path: url(#clippath-21);
      }

      .cls-41 {
        clip-path: url(#clippath-34);
      }

      .cls-42 {
        clip-path: url(#clippath-57);
      }

      .cls-43 {
        clip-path: url(#clippath-1);
      }

      .cls-44 {
        clip-path: url(#clippath-4);
      }

      .cls-45 {
        clip-path: url(#clippath-38);
      }

      .cls-46 {
        clip-path: url(#clippath-36);
      }

      .cls-47 {
        clip-path: url(#clippath-27);
      }

      .cls-48 {
        clip-path: url(#clippath-60);
      }

      .cls-49 {
        clip-path: url(#clippath-44);
      }

      .cls-50 {
        fill: #5e667e;
      }

      .cls-51 {
        fill: #283267;
      }

      .cls-52 {
        clip-path: url(#clippath-12);
      }

      .cls-53 {
        fill: #293368;
      }

      .cls-54 {
        clip-path: url(#clippath-80);
      }

      .cls-55 {
        fill: #8a95b6;
      }

      .cls-56 {
        clip-path: url(#clippath-24);
      }

      .cls-57 {
        clip-path: url(#clippath-30);
      }

      .cls-58 {
        clip-path: url(#clippath-79);
      }

      .cls-59 {
        clip-path: url(#clippath-22);
      }

      .cls-60 {
        clip-path: url(#clippath-9);
      }

      .cls-61 {
        clip-path: url(#clippath-82);
      }

      .cls-62 {
        clip-path: url(#clippath-52);
      }

      .cls-63 {
        clip-path: url(#clippath);
      }

      .cls-64 {
        clip-path: url(#clippath-50);
      }

      .cls-65 {
        clip-path: url(#clippath-48);
      }

      .cls-66 {
        clip-path: url(#clippath-61);
      }

      .cls-67 {
        clip-path: url(#clippath-39);
      }

      .cls-68 {
        fill: none;
      }

      .cls-69 {
        clip-path: url(#clippath-19);
      }

      .cls-70 {
        clip-path: url(#clippath-31);
      }

      .cls-71 {
        clip-path: url(#clippath-86);
      }

      .cls-72 {
        fill: #606981;
      }

      .cls-73 {
        clip-path: url(#clippath-54);
      }

      .cls-74 {
        clip-path: url(#clippath-3);
      }

      .cls-75 {
        clip-path: url(#clippath-43);
      }

      .cls-76 {
        clip-path: url(#clippath-70);
      }

      .cls-77 {
        clip-path: url(#clippath-8);
      }

      .cls-78 {
        clip-path: url(#clippath-55);
      }

      .cls-79 {
        clip-path: url(#clippath-69);
      }

      .cls-80 {
        clip-path: url(#clippath-29);
      }

      .cls-81 {
        clip-path: url(#clippath-18);
      }

      .cls-82 {
        clip-path: url(#clippath-14);
      }

      .cls-83 {
        clip-path: url(#clippath-17);
      }

      .cls-84 {
        clip-path: url(#clippath-5);
      }

      .cls-85 {
        clip-path: url(#clippath-58);
      }

      .cls-86 {
        clip-path: url(#clippath-84);
      }

      .cls-87 {
        clip-path: url(#clippath-42);
      }

      .cls-88 {
        clip-path: url(#clippath-65);
      }

      .cls-89 {
        clip-path: url(#clippath-10);
      }

      .cls-90 {
        clip-path: url(#clippath-23);
      }

      .cls-91 {
        clip-path: url(#clippath-74);
      }

      .cls-92 {
        clip-path: url(#clippath-56);
      }

      .cls-93 {
        clip-path: url(#clippath-53);
      }

      .cls-94 {
        clip-path: url(#clippath-49);
      }

      .cls-95 {
        clip-path: url(#clippath-67);
      }

      .cls-96 {
        clip-path: url(#clippath-51);
      }

      .cls-97 {
        fill: #5e677f;
      }

      .cls-98 {
        clip-path: url(#clippath-28);
      }

      .cls-99 {
        clip-path: url(#clippath-71);
      }

      .cls-100 {
        clip-path: url(#clippath-85);
      }

      .cls-101 {
        fill: #293268;
      }

      .cls-102 {
        clip-path: url(#clippath-68);
      }

      .cls-103 {
        clip-path: url(#clippath-35);
      }

      .cls-104 {
        clip-path: url(#clippath-66);
      }
    </style>
    <clipPath id="clippath">
      <path class="cls-68" d="m33.55,1.04l2.79,2.43c-.53.03-1.05.06-1.56.09-9.58.67-15.97,3.21-19.51,7.73-3.02,3.86-3.7,8.84-3.34,14.25.29,4.34,1.24,8.97,2.18,13.53.88,4.24,1.73,8.36,1.99,12.09.29,4.22-.17,7.91-2.22,10.66-1.99,2.66-5.28,4.2-10.03,4.68l-2.79-2.43c4.75-.49,8.03-2.02,10.03-4.68,2.05-2.75,2.52-6.44,2.22-10.66-.26-3.72-1.11-7.85-1.99-12.09-.94-4.56-1.89-9.18-2.18-13.53-.36-5.41.32-10.39,3.34-14.25,3.53-4.53,9.93-7.06,19.51-7.73.51-.04,1.03-.06,1.56-.09Z"/>
    </clipPath>
    <clipPath id="clippath-1">
      <path class="cls-68" d="m34.08,8.97l2.79,2.43c-.64,0-1.26.03-1.85.08-4.72.33-8.04,1.73-10.15,4.27-2.44,2.93-2.98,7.02-2.67,11.72.24,3.65,1,7.67,1.77,11.79.76,4.05,1.53,8.15,1.79,11.97.57,8.1-1.13,14.93-9.97,17.39l-2.79-2.43c8.83-2.46,10.53-9.29,9.97-17.39-.27-3.82-1.03-7.91-1.79-11.97-.77-4.12-1.53-8.14-1.77-11.79-.31-4.7.23-8.79,2.67-11.72,2.11-2.53,5.44-3.94,10.15-4.27.59-.04,1.21-.07,1.85-.08Z"/>
    </clipPath>
    <clipPath id="clippath-2">
      <path class="cls-68" d="m34.61,9.96l2.79,2.43c-.79,0-1.56.03-2.27.08l-2.79-2.43c.72-.05,1.48-.08,2.27-.08Z"/>
    </clipPath>
    <clipPath id="clippath-3">
      <path class="cls-68" d="m9.49,74.25c-.08-.02-.17-.04-.25-.06-.1-.09-.23-.2-.33-.28-.1-.09-.24-.21-.35-.3s-.25-.22-.36-.31-.26-.22-.37-.32-.26-.22-.37-.32-.25-.22-.36-.31-.24-.21-.35-.3c-.1-.09-.23-.2-.33-.28.08.02.17.04.25.06.49.43.98.85,1.47,1.28.44.38.88.76,1.32,1.15Z"/>
    </clipPath>
    <clipPath id="clippath-4">
      <path class="cls-68" d="m9.49,74.25s-.05-.05-.08-.07c-.9-.79-1.81-1.58-2.71-2.36.91.21,1.74.5,2.5.86.93.81,1.86,1.62,2.79,2.43-.76-.36-1.59-.65-2.5-.86Z"/>
    </clipPath>
    <clipPath id="clippath-5">
      <path class="cls-68" d="m12.3,75.26c-.1-.05-.2-.1-.31-.15-.1-.09-.23-.2-.33-.28-.1-.09-.24-.21-.35-.3s-.25-.22-.36-.31-.26-.22-.37-.32-.26-.22-.37-.32-.25-.22-.36-.31-.24-.21-.35-.3c-.1-.09-.23-.2-.33-.28.1.05.21.1.31.15.93.81,1.86,1.62,2.79,2.43Z"/>
    </clipPath>
    <clipPath id="clippath-6">
      <path class="cls-68" d="m12.3,75.26s-.03-.03-.05-.04c-.03-.03-.07-.06-.1-.09s-.07-.06-.11-.09-.08-.07-.11-.1c-.02-.01-.04-.03-.06-.05-.03-.03-.08-.07-.11-.1s-.08-.07-.11-.09-.07-.06-.1-.09c-.03-.03-.07-.06-.1-.09-.07-.06-.16-.14-.23-.2-.07-.06-.17-.15-.24-.21s-.18-.15-.25-.22-.18-.16-.25-.22-.18-.16-.25-.22-.18-.15-.25-.22c-.16-.14-.31-.27-.47-.41.72.37,1.37.81,1.96,1.32l2.79,2.43c-.59-.51-1.24-.95-1.96-1.32Z"/>
    </clipPath>
    <clipPath id="clippath-7">
      <path class="cls-68" d="m9.24,74.19c-1.45-.31-3.08-.43,5.56,2.9l-10.46-3.28,7.67.85s0,0-10.46-3.28c1.82-.06,3.45.07,4.9.38.93.81,1.86,1.62,2.79,2.43Z"/>
    </clipPath>
    <clipPath id="clippath-8">
      <path class="cls-68" d="m10.84,74.93l2.79,2.43c-2.19-1.91-5.37-2.74-9.73-2.51l-2.79-2.43c4.36-.22,7.54.61,9.73,2.51Z"/>
    </clipPath>
    <clipPath id="clippath-9">
      <path class="cls-68" d="m32.34,10.03l2.79,2.43c-4.44.31-7.56,1.59-9.49,3.91-4.03,4.85-2.4,13.51-.68,22.69,2.38,12.65,4.83,25.73-7.55,30.08l-2.79-2.43c12.38-4.35,9.94-17.43,7.55-30.08-1.72-9.18-3.34-17.84.68-22.69,1.93-2.32,5.06-3.6,9.49-3.91Z"/>
    </clipPath>
    <clipPath id="clippath-10">
      <path class="cls-68" d="m20.35,70.47l2.79,2.43c-1.77-1.54-4.12-2.59-7.25-2.99l-2.79-2.43c3.13.4,5.48,1.45,7.25,2.99Z"/>
    </clipPath>
    <clipPath id="clippath-11">
      <path class="cls-68" d="m11.47,74.15l2.79,2.43c.19.16.37.33.54.51,2.41,2.45,3.38,6.07,3.66,10.31.25,3.74-.02,7.97-.31,12.31-.3,4.59-.61,9.25-.32,13.55.37,5.53,1.71,10.48,5.3,13.96.18.18.37.35.57.52l-2.79-2.43c-.19-.17-.38-.34-.57-.52-3.59-3.47-4.93-8.42-5.3-13.96-.28-4.3.02-8.96.32-13.55.28-4.34.56-8.57.31-12.31-.29-4.24-1.25-7.86-3.66-10.31-.18-.18-.36-.35-.54-.51Z"/>
    </clipPath>
    <clipPath id="clippath-12">
      <path class="cls-68" d="m32.08,121.52s.1.09.15.13l-2.79-2.43s-.1-.09-.15-.13c-2.84-2.58-3.94-6.61-4.28-11.38-.26-3.71-.07-7.86.14-12.11.2-4.16.4-8.36.14-12.21-.36-5.35-1.59-10.01-4.94-12.92l2.79,2.43c3.35,2.91,4.58,7.58,4.94,12.92.26,3.85.06,8.05-.14,12.21-.2,4.25-.4,8.4-.14,12.11.34,4.77,1.44,8.8,4.28,11.38Z"/>
    </clipPath>
    <clipPath id="clippath-13">
      <path class="cls-68" d="m21.1,69.72l2.79,2.43c6.03,5.25,5.54,15.72,5.05,25.93-.45,9.47-.88,18.42,3.82,22.7.04.03.08.07.12.1l-2.79-2.43s-.08-.07-.12-.1c-4.7-4.28-4.28-13.22-3.82-22.7.49-10.21.98-20.68-5.05-25.93Z"/>
    </clipPath>
    <clipPath id="clippath-14">
      <path class="cls-68" d="m32.23,121.65l-2.79-2.43c2.42,2.11,5.82,2.98,10.38,2.66.59-.04,1.21-.1,1.83-.18l2.79,2.43c-.63.08-1.24.14-1.83.18-4.56.32-7.96-.56-10.38-2.66Z"/>
    </clipPath>
    <clipPath id="clippath-15">
      <path class="cls-68" d="m43.54,132.18c-9.17.64-15.68-.82-19.83-4.44l-2.79-2.43c4.16,3.62,10.66,5.08,19.83,4.44.93.81,1.86,1.62,2.79,2.43-.93-.81-1.86-1.62-2.79-2.43.48-.03.95-.08,1.44-.12.93.81,1.86,1.62,2.79,2.43-.49.04-.97.09-1.44.12Z"/>
    </clipPath>
    <clipPath id="clippath-16">
      <path class="cls-68" d="m23.04,128.49l-2.79-2.43c4.37,3.81,11.11,5.34,20.55,4.68.65-.05,1.3-.09,1.97-.16l2.79,2.43c-.67.07-1.33.12-1.97.16-9.44.66-16.18-.87-20.55-4.68Z"/>
    </clipPath>
    <clipPath id="clippath-17">
      <path class="cls-68" d="m43.74,49.29c-.46-.4-.93-.81-1.39-1.21,0-.03.01-.06.01-.09l1.95,1.7s0,.07,0,.11c-.02-.02-.05-.04-.07-.06-.02-.02-.05-.04-.07-.06s-.05-.04-.07-.06-.05-.05-.07-.07-.05-.05-.07-.07-.05-.04-.07-.06-.05-.04-.07-.06c-.02-.02-.05-.04-.07-.06Z"/>
    </clipPath>
    <clipPath id="clippath-18">
      <path class="cls-68" d="m42.35,48.08c.65.57,1.31,1.14,1.96,1.71,0,.14.01.27.02.41-.73-.63-1.45-1.27-2.18-1.9.11-.04.17-.11.2-.21Z"/>
    </clipPath>
    <clipPath id="clippath-19">
      <path class="cls-68" d="m42.15,48.3c.73.63,1.45,1.27,2.18,1.9,0,0,0,0,0,0-.07-.07-.17-.15-.25-.22-.08-.07-.18-.16-.26-.23s-.19-.17-.27-.24-.19-.17-.28-.24-.2-.17-.28-.25-.2-.17-.28-.25-.2-.17-.28-.24-.19-.17-.27-.24c0,0,0,0,0,0Z"/>
    </clipPath>
    <clipPath id="clippath-20">
      <path class="cls-68" d="m44.55,54.12c-.77-.69-1.34-1.49-1.71-2.38-.56-1.37-.65-2.41-.69-3.45.73.63,1.46,1.27,2.18,1.9.16,2.6,1.16,4.75,2.86,6.23-.79-.69-1.86-1.6-2.65-2.31Z"/>
    </clipPath>
    <clipPath id="clippath-21">
      <path class="cls-68" d="m47.91,41.17c-.21.15-.41.3-.61.46-.93-.81-1.86-1.62-2.79-2.43,0,0,0,0,0,0,.93.81,1.85,1.61,2.78,2.42-.1-.08-.23-.2-.32-.28-.1-.09-.24-.21-.34-.3s-.25-.22-.36-.31-.25-.22-.36-.32-.25-.22-.36-.32-.25-.22-.36-.31-.24-.21-.34-.3c-.1-.08-.23-.2-.32-.28.19-.16.4-.31.61-.46.93.81,1.86,1.62,2.79,2.43-.93-.81-1.86-1.62-2.79-2.43,0,0,0,0,0,0h0c.93.81,1.86,1.62,2.79,2.43,0,0,0,0,0,0Z"/>
    </clipPath>
    <clipPath id="clippath-22">
      <path class="cls-68" d="m47.3,41.63c-2.17,1.79-3.24,4.43-3.03,7.55-.1-.09-.23-.2-.33-.28-.1-.09-.24-.21-.35-.3s-.25-.22-.36-.31-.26-.22-.37-.32-.26-.22-.37-.32-.25-.22-.36-.31-.24-.21-.35-.3c-.1-.09-.23-.2-.33-.28-.21-3.12.86-5.76,3.03-7.55.93.81,1.86,1.62,2.79,2.43Z"/>
    </clipPath>
    <clipPath id="clippath-23">
      <path class="cls-68" d="m52.9,39.45c-1.78.12-3.53.71-4.99,1.72-.1-.09-.23-.2-.33-.28-.1-.09-.24-.21-.35-.3s-.25-.22-.36-.31-.26-.22-.37-.32-.26-.22-.37-.32-.25-.22-.36-.31-.24-.21-.35-.3c-.1-.09-.23-.2-.33-.28,1.46-1.01,3.22-1.59,4.99-1.72.93.81,1.86,1.62,2.79,2.43Z"/>
    </clipPath>
    <clipPath id="clippath-24">
      <path class="cls-68" d="m52.9,39.45h0c-.1-.09-.23-.2-.33-.28-.1-.09-.24-.21-.35-.3s-.25-.22-.36-.31-.26-.22-.37-.32-.26-.22-.37-.32-.25-.22-.36-.31-.24-.21-.35-.3c-.1-.09-.23-.2-.33-.28,0,0,0,0,0,0,.93.81,1.86,1.62,2.79,2.43Z"/>
    </clipPath>
    <clipPath id="clippath-25">
      <path class="cls-68" d="m44.31,49.68c-.93-.81-1.86-1.62-2.79-2.43-.02-.16-.03-.33-.04-.49.93.81,1.85,1.61,2.78,2.42-.1-.08-.23-.2-.32-.28-.1-.09-.24-.21-.34-.3s-.25-.22-.36-.31-.25-.22-.36-.32-.25-.22-.36-.32-.25-.22-.36-.31-.24-.21-.34-.3c-.1-.08-.23-.2-.32-.28,0,0,0,0,0,0h0c.93.81,1.86,1.62,2.79,2.43,0,0,0,0,0,0,.01.16.02.33.04.49Z"/>
    </clipPath>
    <clipPath id="clippath-26">
      <path class="cls-68" d="m44.31,49.68s0,0,0,0l-2.79-2.43s0,0,0,0c.83.72,1.67,1.45,2.5,2.17.02.02.05.04.07.06.01,0,.03.02.04.03s.03.02.04.03c.04.04.09.07.13.11,0,0,.01,0,.02.01Z"/>
    </clipPath>
    <clipPath id="clippath-27">
      <path class="cls-68" d="m42.36,47.99s0,.06-.01.09c-.28-.24-.55-.48-.83-.72,0-.04,0-.07,0-.11.25.22.59.51.84.73Z"/>
    </clipPath>
    <clipPath id="clippath-28">
      <path class="cls-68" d="m42.35,48.08c-.03.11-.09.17-.2.21-.2-.18-.41-.35-.61-.53,0-.13-.02-.27-.02-.41.28.24.55.48.83.72Z"/>
    </clipPath>
    <clipPath id="clippath-29">
      <path class="cls-68" d="m42.15,48.3s0,0,0,0c-.02-.02-.06-.05-.08-.07s-.05-.05-.08-.07-.05-.05-.08-.07-.05-.05-.08-.07-.05-.05-.08-.07-.05-.05-.07-.06-.05-.04-.07-.06-.05-.04-.07-.06c0,0,0,0,0,0,.2.18.41.35.61.53Z"/>
    </clipPath>
    <clipPath id="clippath-30">
      <path class="cls-68" d="m58.06,40.46c-1.57-.8-3.37-1.13-5.16-1.01-.1-.09-.23-.2-.33-.28-.1-.09-.24-.21-.35-.3s-.25-.22-.36-.31-.26-.22-.37-.32-.26-.22-.37-.32-.25-.22-.36-.31-.24-.21-.35-.3c-.1-.09-.23-.2-.33-.28,1.78-.12,3.59.21,5.16,1.01.93.81,1.86,1.62,2.79,2.43-.04-.03-.08-.07-.12-.1s-.09-.07-.12-.11-.09-.08-.13-.11-.09-.08-.13-.11-.09-.08-.13-.11-.09-.08-.13-.12-.09-.08-.13-.12-.09-.08-.14-.12c-.07-.06-.16-.14-.23-.2s-.16-.14-.23-.2-.16-.14-.23-.2-.16-.14-.23-.2-.16-.14-.22-.19-.15-.13-.22-.19-.15-.13-.21-.18-.14-.12-.2-.17c.62.32,1.19.7,1.69,1.13l2.79,2.43c-.5-.44-1.07-.82-1.69-1.13Z"/>
    </clipPath>
    <clipPath id="clippath-31">
      <path class="cls-68" d="m42.15,48.3c.04,1.04.13,2.08.69,3.45.53,1.3,1.36,2.05,1.71,2.38l-.14-.12c-1.71-1.48-2.7-3.63-2.86-6.23.2.18.4.35.61.53Z"/>
    </clipPath>
    <clipPath id="clippath-32">
      <path class="cls-68" d="m61.16,41.58s-.07-.06-.1-.09c-.03-.03-.08-.07-.11-.1s-.08-.07-.11-.1-.08-.07-.12-.1-.08-.07-.12-.1-.08-.07-.11-.1-.08-.07-.11-.1c-.03-.03-.07-.06-.1-.09-.15-.13-.3-.27-.46-.4-.07-.06-.17-.15-.24-.21s-.17-.15-.25-.22-.17-.15-.25-.22-.17-.15-.24-.21-.16-.14-.24-.2c-.07-.06-.16-.14-.22-.19-.23-.25-.48-.49-.74-.72l2.79,2.43c.26.23.51.47.74.72Z"/>
    </clipPath>
    <clipPath id="clippath-33">
      <path class="cls-68" d="m61.16,41.58c.39.43.74.9,1.04,1.41-.1-.09-.23-.2-.33-.28-.1-.09-.24-.21-.35-.3s-.25-.22-.36-.31-.26-.22-.37-.32-.26-.22-.37-.32-.25-.22-.36-.31-.24-.21-.35-.3c-.1-.09-.23-.2-.33-.28-.3-.5-.65-.97-1.04-1.41.63.55,1.27,1.1,1.9,1.65.15.13.3.26.45.39.15.13.3.25.45.39Z"/>
    </clipPath>
    <clipPath id="clippath-34">
      <path class="cls-68" d="m62.93,44.47c-.93-.81-1.86-1.62-2.79-2.43-.2-.52-.44-1.02-.72-1.49.93.81,1.86,1.62,2.79,2.43.28.47.52.96.72,1.49Z"/>
    </clipPath>
    <clipPath id="clippath-35">
      <path class="cls-68" d="m62.93,44.47c.06.15.11.31.17.47-.1-.09-.23-.2-.33-.28-.1-.09-.24-.21-.35-.3s-.25-.22-.36-.31-.26-.22-.37-.32-.26-.22-.37-.32-.25-.22-.36-.31-.24-.21-.35-.3c-.1-.09-.23-.2-.33-.28-.05-.16-.11-.32-.17-.47.55.48,1.09.95,1.64,1.43.19.17.38.33.57.5.07.07.15.13.22.2.02.02.05.04.07.06.04.04.1.09.14.12.04.03.1.07.13.12Z"/>
    </clipPath>
    <clipPath id="clippath-36">
      <path class="cls-68" d="m56.96,39.17l2.79,2.43c1.72,1.49,2.72,3.66,2.89,6.32.01.17.02.34.02.51l-2.79-2.43c0-.17-.01-.34-.02-.51-.17-2.66-1.17-4.83-2.89-6.32Z"/>
    </clipPath>
    <clipPath id="clippath-37">
      <path class="cls-68" d="m63.1,44.94c.34,1.04.53,2.19.56,3.42l-2.79-2.43c-.03-1.23-.22-2.37-.56-3.42.46.4.93.81,1.39,1.21.05.05.13.11.18.16.18.16.36.31.54.47.1.09.24.21.35.3.05.04.12.1.17.14s.12.09.16.14Z"/>
    </clipPath>
    <clipPath id="clippath-38">
      <path class="cls-68" d="m47.2,56.43l-2.79-2.43c.37.33.78.62,1.22.88.17.1.35.2.53.29,1.59.8,3.4,1.12,5.17,1s3.63-.73,5.11-1.78c2.47-1.75,3.7-4.48,3.48-7.73-.01-.22-.04-.44-.06-.66l2.79,2.43c.03.22.05.44.06.66.22,3.25-1.01,5.97-3.48,7.73-1.49,1.05-3.28,1.65-5.11,1.78s-3.59-.2-5.17-1c-.18-.09-.36-.19-.53-.29-.44-.26-.85-.55-1.22-.88Z"/>
    </clipPath>
    <clipPath id="clippath-39">
      <path class="cls-68" d="m63.65,48.36c.13,1.05.13,2.06,0,3.01-.1-.09-.23-.2-.33-.28-.1-.09-.24-.21-.35-.3s-.25-.22-.36-.31-.26-.22-.37-.32-.26-.22-.37-.32-.25-.22-.36-.31-.24-.21-.35-.3c-.1-.09-.23-.2-.33-.28.14-.95.14-1.96,0-3.01.84.73,2.27,1.45,2.79,2.43Z"/>
    </clipPath>
    <clipPath id="clippath-40">
      <path class="cls-68" d="m63.49,52.2c-.93-.81-1.86-1.62-2.79-2.43.06-.27.11-.55.15-.83.93.81,1.86,1.62,2.79,2.43-.04.28-.09.56-.15.83Z"/>
    </clipPath>
    <clipPath id="clippath-41">
      <path class="cls-68" d="m63.49,52.2c-.12.52-.28,1.02-.48,1.5-.93-.81-1.86-1.62-2.79-2.43.2-.48.36-.98.48-1.5.93.81,1.86,1.62,2.79,2.43Z"/>
    </clipPath>
    <clipPath id="clippath-42">
      <path class="cls-68" d="m62.17,55.25s-.08-.07-.11-.1c-.04-.03-.08-.07-.12-.1s-.09-.07-.12-.11-.09-.08-.13-.11-.09-.08-.13-.11-.09-.07-.12-.11-.08-.07-.12-.1c-.03-.03-.08-.07-.11-.1-.61-.53-1.22-1.06-1.83-1.6.33-.49.61-1,.84-1.55.93.81,1.86,1.62,2.79,2.43-.23.54-.51,1.06-.84,1.55Z"/>
    </clipPath>
    <clipPath id="clippath-43">
      <path class="cls-68" d="m48.5,58.49c-.73-.36-1.38-.8-1.96-1.31l-2.79-2.43c.58.51,1.24.95,1.96,1.31,1.74.87,3.74,1.23,5.69,1.1s3.98-.8,5.62-1.96c.96-.67,1.75-1.47,2.36-2.38.93.81,1.86,1.62,2.79,2.43-.61.91-1.4,1.71-2.36,2.38-1.63,1.16-3.61,1.82-5.62,1.96s-3.95-.23-5.69-1.1Z"/>
    </clipPath>
    <clipPath id="clippath-44">
      <path class="cls-68" d="m88.06,59.17l2.79,2.43c-.5-.44-1.07-.82-1.69-1.13-1.57-.8-3.37-1.12-5.16-1s-3.53.7-4.99,1.71c-2.58,1.78-3.87,4.62-3.64,8.02.01.16.02.32.04.48l-2.79-2.43c-.02-.16-.03-.32-.04-.48-.23-3.4,1.06-6.24,3.64-8.02,1.46-1.01,3.22-1.59,4.99-1.71s3.59.2,5.16,1c.62.32,1.19.7,1.69,1.13Z"/>
    </clipPath>
    <clipPath id="clippath-45">
      <path class="cls-68" d="m78.31,76.43l-2.79-2.43c-1.7-1.48-2.69-3.62-2.87-6.23-.01-.17-.02-.34-.02-.54l2.79,2.43c0,.2.01.37.02.54.17,2.61,1.17,4.75,2.87,6.23Z"/>
    </clipPath>
    <clipPath id="clippath-46">
      <path class="cls-68" d="m90.85,61.59c1.72,1.49,2.72,3.66,2.89,6.32-.1-.09-.23-.2-.33-.28-.1-.09-.24-.21-.35-.3s-.25-.22-.36-.31-.26-.22-.37-.32-.26-.22-.37-.32-.25-.22-.36-.31-.24-.21-.35-.3c-.1-.09-.23-.2-.33-.28-.17-2.66-1.17-4.83-2.89-6.32.84.73,1.95,1.7,2.79,2.43Z"/>
    </clipPath>
    <clipPath id="clippath-47">
      <path class="cls-68" d="m93.74,67.92c.01.17.02.34.02.51l-2.79-2.43s0,0,0,0c.93.81,1.86,1.62,2.78,2.42-.1-.08-.23-.2-.33-.28-.1-.09-.24-.21-.34-.3s-.25-.22-.36-.31-.25-.22-.36-.32-.25-.22-.36-.32-.25-.22-.36-.31-.24-.21-.34-.3c-.1-.08-.23-.2-.33-.28,0-.17-.01-.34-.02-.51.93.81,1.86,1.62,2.79,2.42-.1-.08-.23-.2-.33-.28-.1-.09-.24-.21-.34-.3s-.25-.22-.36-.31-.26-.22-.36-.32-.26-.22-.36-.32-.25-.22-.36-.31-.24-.21-.34-.3c-.1-.08-.23-.2-.33-.28,0,0,0,0,0,0h0c.93.81,1.86,1.62,2.79,2.43,0,0,0,0,0,0Z"/>
    </clipPath>
    <clipPath id="clippath-48">
      <path class="cls-68" d="m93.76,68.43c.03.22.05.44.06.65-.1-.09-.23-.2-.33-.28-.1-.09-.24-.21-.35-.3s-.25-.22-.36-.31-.26-.22-.37-.32-.26-.22-.37-.32-.25-.22-.36-.31-.24-.21-.35-.3c-.1-.09-.23-.2-.33-.28-.01-.22-.04-.43-.06-.65.34.3.69.6,1.03.9.24.21.49.42.73.64.29.25.58.5.87.76.05.04.13.08.16.14Z"/>
    </clipPath>
    <clipPath id="clippath-49">
      <path class="cls-68" d="m93.82,69.08s0,0,0,0c-.1-.09-.23-.2-.33-.28-.1-.09-.24-.21-.35-.3s-.25-.22-.36-.31-.26-.22-.37-.32-.26-.22-.37-.32-.25-.22-.36-.31-.24-.21-.35-.3c-.1-.09-.23-.2-.33-.28,0,0,0,0,0,0,.93.81,1.86,1.62,2.79,2.43Z"/>
    </clipPath>
    <clipPath id="clippath-50">
      <path class="cls-68" d="m88.74,58.43l2.79,2.43c2.03,1.77,3.16,4.36,3.23,7.5l-2.79-2.43c-.07-3.14-1.2-5.74-3.23-7.5Z"/>
    </clipPath>
    <clipPath id="clippath-51">
      <path class="cls-68" d="m80.05,77.59c-.65-.32-1.23-.71-1.75-1.16l-2.79-2.43c.52.45,1.1.84,1.75,1.16.93.81,1.86,1.62,2.79,2.43-.93-.81-1.86-1.62-2.79-2.43,1.58.8,3.39,1.12,5.17,1h0s0,0,0,0c.93.81,1.86,1.62,2.79,2.43-.93-.81-1.86-1.62-2.79-2.43,1.83-.13,3.62-.73,5.11-1.78.93.81,1.86,1.62,2.79,2.43-1.5,1.05-3.28,1.65-5.11,1.78s-3.59-.2-5.17-1Z"/>
    </clipPath>
    <clipPath id="clippath-52">
      <path class="cls-68" d="m93.82,69.09c.22,3.25-1.01,5.97-3.48,7.73-.1-.09-.23-.2-.33-.28-.1-.09-.24-.21-.35-.3s-.25-.22-.36-.31-.26-.22-.37-.32-.26-.22-.37-.32-.25-.22-.36-.31-.24-.21-.35-.3c-.1-.09-.23-.2-.33-.28,2.47-1.75,3.7-4.48,3.48-7.73.93.81,1.86,1.62,2.79,2.43Z"/>
    </clipPath>
    <clipPath id="clippath-53">
      <path class="cls-68" d="m77.64,77.18l-2.79-2.43c.58.51,1.24.95,1.96,1.31,1.74.88,3.74,1.23,5.69,1.1s3.98-.8,5.62-1.96c2.96-2.09,4.33-5.4,3.85-9.27l2.79,2.43c.48,3.87-.89,7.18-3.85,9.27-1.63,1.16-3.61,1.82-5.62,1.96s-3.95-.22-5.69-1.1c-.73-.36-1.38-.8-1.96-1.31Z"/>
    </clipPath>
    <clipPath id="clippath-54">
      <path class="cls-68" d="m119.16,79.16l2.79,2.43c-.5-.44-1.06-.81-1.68-1.13-1.57-.8-3.37-1.12-5.16-1s-3.53.7-4.99,1.71c-2.58,1.78-3.87,4.62-3.64,8.02.01.16.02.32.04.48l-2.79-2.43c-.02-.16-.03-.32-.04-.48-.23-3.4,1.06-6.24,3.64-8.02,1.46-1.01,3.22-1.59,4.99-1.71s3.59.2,5.16,1c.62.32,1.18.7,1.68,1.13Z"/>
    </clipPath>
    <clipPath id="clippath-55">
      <path class="cls-68" d="m109.42,96.44l-2.79-2.43c-1.7-1.48-2.7-3.62-2.87-6.24-.01-.17-.02-.34-.02-.54l2.79,2.43c0,.2.01.37.02.54.17,2.61,1.17,4.75,2.87,6.24Z"/>
    </clipPath>
    <clipPath id="clippath-56">
      <path class="cls-68" d="m108.37,95.17s.1.09.14.12c.36.31.71.62,1.07.93.42.36.83.73,1.25,1.09-.09-.08-.21-.18-.3-.26s-.22-.19-.31-.27-.22-.19-.32-.28-.22-.2-.32-.28-.22-.19-.32-.28-.22-.19-.31-.27-.21-.18-.3-.26c-.09-.07-.2-.17-.28-.25,0,0,0,0,0,0Z"/>
    </clipPath>
    <clipPath id="clippath-57">
      <path class="cls-68" d="m121.95,81.59c1.72,1.5,2.72,3.67,2.89,6.33-.93-.81-1.86-1.62-2.79-2.43-.17-2.66-1.17-4.83-2.89-6.33.84.73,1.95,1.7,2.79,2.43Z"/>
    </clipPath>
    <clipPath id="clippath-58">
      <path class="cls-68" d="m124.84,87.93c-.93-.81-1.86-1.62-2.79-2.43,0,0,0,0,0,0h0c.93.81,1.86,1.62,2.79,2.43,0,0,0,0,0,0,0,0,0,0,0,0Z"/>
    </clipPath>
    <clipPath id="clippath-59">
      <path class="cls-68" d="m124.87,88.43c-.93-.81-1.86-1.62-2.79-2.43,0-.17-.01-.34-.02-.51.93.81,1.86,1.62,2.79,2.43.01.17.02.34.02.51Z"/>
    </clipPath>
    <clipPath id="clippath-60">
      <path class="cls-68" d="m124.87,88.44c.03.22.05.44.06.66-.1-.09-.23-.2-.33-.28-.1-.09-.24-.21-.35-.3s-.25-.22-.36-.31-.26-.22-.37-.32-.26-.22-.37-.32-.25-.22-.36-.31-.24-.21-.35-.3c-.1-.09-.23-.2-.33-.28,0,0,0,0,0,0,.93.81,1.86,1.61,2.78,2.42-.93-.81-1.86-1.61-2.78-2.42-.01-.22-.04-.43-.06-.65.93.81,1.85,1.61,2.78,2.42-.1-.08-.23-.2-.32-.28-.1-.09-.24-.21-.34-.3s-.25-.22-.36-.31-.25-.22-.36-.32-.25-.22-.36-.32-.25-.22-.36-.31-.24-.21-.34-.3c-.1-.08-.23-.2-.32-.28,0,0,0,0,0,0,.84.73,2.27,1.45,2.79,2.43Z"/>
    </clipPath>
    <clipPath id="clippath-61">
      <path class="cls-68" d="m124.87,88.43s0,0,0,0l-2.79-2.43s0,0,0,0c.93.81,1.86,1.62,2.79,2.43Z"/>
    </clipPath>
    <clipPath id="clippath-62">
      <path class="cls-68" d="m119.84,78.43l2.79,2.43c2.03,1.77,3.16,4.36,3.23,7.5l-2.79-2.43c-.07-3.14-1.2-5.74-3.23-7.5Z"/>
    </clipPath>
    <clipPath id="clippath-63">
      <path class="cls-68" d="m111.16,97.6c-.64-.32-1.23-.71-1.74-1.16l-2.79-2.43c.52.45,1.1.84,1.74,1.16.93.81,1.86,1.62,2.79,2.43-.01-.01-.03-.02-.04-.03s-.03-.02-.04-.03-.03-.02-.04-.04-.03-.02-.04-.04-.03-.02-.04-.04-.03-.03-.04-.04-.03-.03-.04-.04-.03-.03-.04-.04c-.09-.08-.21-.18-.3-.26s-.22-.19-.31-.27-.22-.19-.32-.28-.22-.2-.32-.28-.22-.19-.32-.28-.22-.19-.31-.27-.21-.18-.3-.26c-.09-.07-.2-.17-.28-.25,1.58.79,3.39,1.12,5.17,1,.93.81,1.86,1.62,2.79,2.43-.93-.81-1.86-1.62-2.79-2.43,1.83-.13,3.62-.73,5.11-1.79.93.81,1.86,1.62,2.79,2.43-1.5,1.06-3.28,1.66-5.11,1.79s-3.59-.21-5.17-1Z"/>
    </clipPath>
    <clipPath id="clippath-64">
      <path class="cls-68" d="m124.93,89.09c.22,3.25-1.01,5.97-3.48,7.72-.93-.81-1.86-1.62-2.79-2.43,2.48-1.74,3.7-4.47,3.48-7.72.93.81,1.86,1.62,2.79,2.43Z"/>
    </clipPath>
    <clipPath id="clippath-65">
      <path class="cls-68" d="m108.74,97.18l-2.79-2.43c.58.51,1.24.95,1.97,1.31,1.74.88,3.73,1.23,5.69,1.1s3.98-.8,5.62-1.96c2.96-2.09,4.32-5.4,3.85-9.27l2.79,2.43c.48,3.87-.89,7.18-3.85,9.27-1.63,1.16-3.61,1.82-5.62,1.96s-3.95-.22-5.69-1.1c-.73-.37-1.39-.81-1.97-1.31Z"/>
    </clipPath>
    <clipPath id="clippath-66">
      <path class="cls-68" d="m126.28,13.8c-.5.04-1.02.08-1.55.14l-2.79-2.43c.53-.06,1.05-.11,1.55-.14,3.8-.27,6.82.25,9.14,1.56.93.81,1.86,1.62,2.79,2.43-2.32-1.32-5.34-1.83-9.14-1.56Z"/>
    </clipPath>
    <clipPath id="clippath-67">
      <path class="cls-68" d="m135.42,15.37c-.11-.08-.2-.17-.29-.26-.42-.36-.83-.72-1.25-1.09-.1-.09-.23-.2-.33-.28s-.22-.2-.32-.28-.22-.19-.31-.27c-.09-.08-.2-.18-.29-.25.58.33,1.12.71,1.61,1.14l2.79,2.43c-.49-.43-1.03-.81-1.61-1.14Z"/>
    </clipPath>
    <clipPath id="clippath-68">
      <path class="cls-68" d="m133.6,14.84l2.79,2.43c-2.25-1.96-5.55-2.78-10-2.47-.65.05-1.34.12-2.05.22l-2.79-2.43c.71-.09,1.39-.17,2.05-.22,4.45-.31,7.75.51,10,2.47Z"/>
    </clipPath>
    <clipPath id="clippath-69">
      <path class="cls-68" d="m142.75,7.95l2.79,2.43c-4.19-3.64-10.78-5.1-20.06-4.45-.42.03-.84.06-1.27.1l-2.79-2.43c.43-.04.85-.07,1.27-.1,9.29-.65,15.88.81,20.06,4.45Z"/>
    </clipPath>
    <clipPath id="clippath-70">
      <path class="cls-68" d="m146.13,10.92c-.93-.81-1.86-1.62-2.79-2.43-.19-.19-.39-.37-.59-.55l2.79,2.43c.2.18.4.36.59.55Z"/>
    </clipPath>
    <clipPath id="clippath-71">
      <path class="cls-68" d="m151.33,24.56c.29,4.33-.04,9.04-.36,13.67-.93-.81-1.86-1.62-2.79-2.43.32-4.63.65-9.33.36-13.67h0s0,0,0,0c.59.51,1.17,1.02,1.76,1.53.34.3.69.6,1.03.9-.04-.03-.08-.07-.12-.1s-.09-.07-.12-.11-.09-.08-.13-.11-.09-.08-.13-.11-.09-.08-.13-.11-.09-.08-.13-.12-.09-.08-.13-.12-.09-.08-.14-.12c-.59-.51-1.17-1.02-1.76-1.53-.36-5.4-1.69-10.23-5.19-13.64.93.81,1.86,1.62,2.79,2.43,0,0,0,0,0,0,3.5,3.41,4.83,8.24,5.19,13.64Z"/>
    </clipPath>
    <clipPath id="clippath-72">
      <path class="cls-68" d="m134.24,14.08l2.79,2.43c.08.07.15.13.22.2,2.78,2.57,3.83,6.52,4.13,11.18.23,3.62,0,7.67-.22,11.81-.23,4.2-.47,8.44-.21,12.32.35,5.19,1.59,9.72,4.91,12.62l-2.79-2.43c-3.32-2.89-4.56-7.43-4.91-12.62-.26-3.88-.02-8.12.21-12.32.23-4.14.45-8.19.22-11.81-.3-4.66-1.36-8.61-4.13-11.18-.07-.07-.15-.14-.22-.2Z"/>
    </clipPath>
    <clipPath id="clippath-73">
      <path class="cls-68" d="m147.48,65.8c-.59-.35-1.13-.75-1.62-1.17l-2.79-2.43c.49.43,1.03.82,1.62,1.17.93.81,1.86,1.62,2.79,2.43Z"/>
    </clipPath>
    <clipPath id="clippath-74">
      <path class="cls-68" d="m154.23,60.67c.17.18.35.35.54.51l-2.79-2.43c-.19-.16-.37-.33-.54-.51.93.81,1.86,1.62,2.79,2.43-.93-.81-1.86-1.62-2.79-2.43-2.39-2.44-3.34-6.03-3.61-10.23-.24-3.71.05-7.9.35-12.21h0c.93.81,1.86,1.62,2.79,2.43,0,0,0,0,0,0-.3,4.3-.59,8.5-.35,12.21.27,4.21,1.22,7.8,3.61,10.23Z"/>
    </clipPath>
    <clipPath id="clippath-75">
      <path class="cls-68" d="m143.42,7.19l2.79,2.43c.22.19.42.38.63.58,6.64,6.49,5.88,17.47,5.13,28.1-.62,8.95-1.21,17.41,2.98,21.68.15.16.31.31.48.45l-2.79-2.43c-.17-.14-.33-.3-.48-.45-4.19-4.27-3.6-12.72-2.98-21.68.75-10.63,1.51-21.61-5.13-28.1-.2-.2-.41-.39-.63-.58Z"/>
    </clipPath>
    <clipPath id="clippath-76">
      <path class="cls-68" d="m153.1,67.7c-2.25-.33-4.1-.98-5.62-1.9-.1-.09-.23-.2-.33-.28-.1-.09-.24-.21-.35-.3s-.25-.22-.36-.31-.26-.22-.37-.32-.26-.22-.37-.32-.25-.22-.36-.31-.24-.21-.35-.3c-.1-.09-.23-.2-.33-.28,1.52.91,3.37,1.56,5.62,1.9.84.73,1.95,1.7,2.79,2.43Z"/>
    </clipPath>
    <clipPath id="clippath-77">
      <path class="cls-68" d="m145.11,65.37l-2.79-2.43c1.65,1.43,3.78,2.5,6.54,3.08l2.79,2.43c-2.76-.58-4.89-1.65-6.54-3.08Z"/>
    </clipPath>
    <clipPath id="clippath-78">
      <path class="cls-68" d="m154.77,61.18l-2.79-2.43c2.31,2.01,5.61,2.92,10.04,2.76l2.79,2.43c-4.43.16-7.73-.75-10.04-2.76Z"/>
    </clipPath>
    <clipPath id="clippath-79">
      <path class="cls-68" d="m155.39,75.94c-.26.35-.49.71-.7,1.08-.1-.09-.23-.2-.33-.28-.1-.09-.24-.21-.35-.3s-.25-.22-.36-.31-.26-.22-.37-.32-.26-.22-.37-.32-.25-.22-.36-.31-.24-.21-.35-.3c-.1-.09-.23-.2-.33-.28.21-.37.44-.73.7-1.08.58-.78,1.27-1.46,2.08-2.05.46.4.93.81,1.39,1.21.24.21.48.42.72.63.1.09.24.21.35.3.1.09.23.2.33.28-.81.59-1.5,1.27-2.08,2.05Z"/>
    </clipPath>
    <clipPath id="clippath-80">
      <path class="cls-68" d="m154.69,77.02c-.05.09-.1.19-.15.28-.93-.81-1.86-1.62-2.79-2.43.05-.1.1-.19.15-.28.93.81,1.86,1.62,2.79,2.43Z"/>
    </clipPath>
    <clipPath id="clippath-81">
      <path class="cls-68" d="m159.79,72.59c-.79.34-1.5.73-2.15,1.18-.93-.81-1.86-1.62-2.79-2.43.64-.45,1.36-.84,2.15-1.18.93.81,1.86,1.62,2.79,2.43Z"/>
    </clipPath>
    <clipPath id="clippath-82">
      <path class="cls-68" d="m160.25,72.4c-.16.06-.31.12-.47.19-.93-.81-1.86-1.62-2.79-2.43.15-.06.31-.13.46-.19q.51.44,1.65,1.43c.38.33.76.66,1.14.99Z"/>
    </clipPath>
    <clipPath id="clippath-83">
      <path class="cls-68" d="m160.25,72.4c-.93-.81-1.86-1.62-2.79-2.43,1.45-.56,3.13-.93,5.05-1.14l2.79,2.43c-1.92.2-3.6.58-5.05,1.14Z"/>
    </clipPath>
    <clipPath id="clippath-84">
      <path class="cls-68" d="m153.13,86.65c.25,3.74,1.08,7.89,1.94,12.14-.1-.09-.23-.2-.33-.28-.1-.09-.24-.21-.35-.3s-.25-.22-.36-.31-.26-.22-.36-.32-.26-.22-.37-.32-.25-.22-.36-.31-.24-.21-.35-.3c-.1-.09-.23-.2-.33-.28-.86-4.26-1.7-8.4-1.94-12.14-.23-3.58.07-6.78,1.41-9.35.93.81,1.86,1.62,2.79,2.43-1.34,2.57-1.64,5.77-1.41,9.35Z"/>
    </clipPath>
    <clipPath id="clippath-85">
      <path class="cls-68" d="m150.4,66.57l2.79,2.43c-8.7,2.54-10.44,9.29-9.92,17.29.26,3.91,1.05,8.11,1.84,12.27.78,4.14,1.54,8.17,1.79,11.84.32,4.72-.21,8.84-2.65,11.81-2.15,2.62-5.58,4.07-10.46,4.41-.48.03-.97.06-1.48.07l-2.79-2.43c.51,0,1.01-.03,1.48-.07,4.88-.34,8.31-1.79,10.46-4.41,2.44-2.97,2.97-7.09,2.65-11.81-.25-3.67-1.01-7.7-1.79-11.84-.79-4.16-1.58-8.36-1.84-12.27-.52-8,1.21-14.75,9.92-17.29Z"/>
    </clipPath>
    <clipPath id="clippath-86">
      <path class="cls-68" d="m134.27,134.53l-1.43.08-1.36-2.51s0,0-1.43.08h0c.46.4.93.81,1.39,1.21.46.4.93.81,1.39,1.21-.93-.81-1.85-1.61-2.78-2.42.48-.02.96-.05,1.42-.08.93.81,1.86,1.62,2.79,2.43-.93-.81-1.86-1.62-2.79-2.43,0,0,0,0,0,0h0c.93.81,1.86,1.62,2.79,2.43,0,0,0,0,0,0Z"/>
    </clipPath>
    <clipPath id="clippath-87">
      <path class="cls-68" d="m153.8,126.77c-3.56,4.54-9.96,7.09-19.53,7.76-.93-.81-1.86-1.62-2.79-2.43,9.57-.67,15.97-3.23,19.53-7.76.93.81,1.86,1.62,2.79,2.43-.39-.34-.78-.68-1.17-1.02-.08-.07-.19-.17-.27-.24-.04-.04-.1-.08-.14-.12-.18-.16-.36-.31-.54-.47-.03-.02-.06-.05-.09-.08-.01-.01-.03-.03-.04-.04-.03-.02-.06-.05-.09-.08-.01-.01-.03-.03-.04-.04-.03-.02-.06-.05-.08-.07s-.06-.05-.08-.07-.06-.05-.08-.07-.06-.05-.08-.07-.06-.05-.08-.07c3.09-3.95,3.76-9.05,3.39-14.59.93.81,1.86,1.62,2.79,2.43-.93-.81-1.86-1.62-2.79-2.43-.29-4.31-1.21-8.89-2.12-13.4.93.81,1.86,1.62,2.79,2.43.91,4.51,1.83,9.09,2.12,13.4.37,5.54-.3,10.64-3.39,14.59Z"/>
    </clipPath>
    <clipPath id="clippath-88">
      <path class="cls-68" d="m163.09,69.78l2.79,2.43c-4.66.41-7.82,1.83-9.69,4.33-3.61,4.83-1.92,13.2-.14,22.06,2.12,10.53,4.31,21.41-1.47,28.79-3.74,4.78-10.39,7.45-20.27,8.14-.63.04-1.26.08-1.91.11l-2.79-2.43c.65-.03,1.28-.06,1.91-.11,9.88-.69,16.53-3.36,20.27-8.14,5.78-7.38,3.59-18.26,1.47-28.79-1.78-8.86-3.47-17.23.14-22.06,1.87-2.5,5.03-3.92,9.69-4.33Z"/>
    </clipPath>
  </defs>
  <g id="Layer_1-2" data-name="Layer 1">
    <g class="cls-26">
      <g class="cls-26">
        <g class="cls-63">
          <g class="cls-26">
            <path class="cls-97" d="m33.55,1.04l2.79,2.43c-.53.03-1.05.06-1.56.09-5.52.39-9.99,1.39-13.46,3.05l-2.79-2.43c3.47-1.65,7.93-2.66,13.46-3.05.51-.04,1.03-.06,1.56-.09"/>
            <path class="cls-72" d="m18.53,4.18l2.79,2.43c-2.54,1.21-4.55,2.77-6.05,4.69-.81,1.04-1.46,2.16-1.96,3.35l-2.79-2.43c.5-1.19,1.14-2.31,1.96-3.35,1.49-1.92,3.5-3.47,6.05-4.69"/>
            <path class="cls-97" d="m10.53,12.21l2.79,2.43c-1.35,3.23-1.64,6.95-1.38,10.9.29,4.34,1.24,8.97,2.18,13.53.88,4.24,1.73,8.36,1.99,12.09.22,3.2,0,6.1-1.01,8.52l-2.79-2.43c1.01-2.41,1.23-5.32,1.01-8.52-.26-3.72-1.11-7.85-1.99-12.09-.94-4.56-1.89-9.18-2.18-13.53-.26-3.95.03-7.67,1.38-10.9"/>
            <path class="cls-72" d="m12.3,57.24l2.79,2.43c-.32.77-.72,1.48-1.22,2.14-.98,1.31-2.27,2.34-3.89,3.12l-2.79-2.43c1.62-.77,2.91-1.81,3.89-3.12.49-.66.9-1.38,1.22-2.14"/>
            <path class="cls-97" d="m7.2,62.5l2.79,2.43c-1.68.8-3.72,1.32-6.13,1.57l-2.79-2.43c2.42-.25,4.45-.77,6.13-1.57"/>
          </g>
        </g>
      </g>
      <polygon class="cls-4" points="33.55 1.04 36.34 3.47 36.87 11.39 34.08 8.97 33.55 1.04"/>
      <g class="cls-26">
        <g class="cls-43">
          <g class="cls-26">
            <path class="cls-101" d="m34.08,8.97l2.79,2.43c-.64,0-1.26.03-1.85.08-2.61.18-4.8.7-6.59,1.55l-2.79-2.43c1.79-.85,3.98-1.37,6.59-1.55.59-.04,1.21-.07,1.85-.08"/>
            <path class="cls-32" d="m25.64,10.59l2.79,2.43c-1.44.69-2.62,1.59-3.56,2.72-.67.8-1.19,1.69-1.59,2.65l-2.79-2.43c.4-.96.93-1.85,1.59-2.65.94-1.13,2.12-2.03,3.56-2.72"/>
            <path class="cls-101" d="m20.49,15.96l2.79,2.43c-1.08,2.56-1.3,5.65-1.07,9.07.24,3.65,1,7.67,1.77,11.79.76,4.05,1.53,8.15,1.79,11.97.26,3.79.03,7.31-1.19,10.22l-2.79-2.43c1.23-2.92,1.46-6.43,1.19-10.22-.27-3.82-1.03-7.91-1.79-11.97-.77-4.12-1.53-8.14-1.77-11.79-.23-3.41,0-6.51,1.07-9.07"/>
            <path class="cls-32" d="m21.78,59.01l2.79,2.43c-1.09,2.58-2.95,4.69-5.94,6.12l-2.79-2.43c2.99-1.43,4.85-3.54,5.94-6.12"/>
            <path class="cls-101" d="m15.85,65.13l2.79,2.43c-.85.41-1.79.76-2.83,1.05l-2.79-2.43c1.04-.29,1.98-.64,2.83-1.05"/>
          </g>
        </g>
      </g>
      <g class="cls-26">
        <g class="cls-23">
          <g class="cls-26">
            <path class="cls-97" d="m34.61,9.96l2.79,2.43c-.79,0-1.56.03-2.27.08l-2.79-2.43c.72-.05,1.48-.08,2.27-.08"/>
          </g>
        </g>
      </g>
      <polygon class="cls-50" points="35.15 9.96 37.94 12.39 37.4 12.38 34.61 9.96 35.15 9.96"/>
      <polygon class="cls-50" points="34.48 0 37.27 2.43 37.94 12.39 35.15 9.96 34.48 0"/>
      <polygon class="cls-50" points="1.06 64.07 3.85 66.5 4.34 73.82 1.55 71.39 1.06 64.07"/>
      <polygon class="cls-19" points="1.11 72.41 3.9 74.84 3.41 74.86 .62 72.44 1.11 72.41"/>
      <g class="cls-26">
        <g class="cls-74">
          <g class="cls-26">
            <path class="cls-101" d="m11.47,74.15l2.79,2.43c-2.3-2-5.55-2.9-9.92-2.77l-2.79-2.43c4.36-.14,7.62.76,9.92,2.77"/>
          </g>
        </g>
      </g>
      <polygon class="cls-53" points="13.01 66.17 15.8 68.6 15.4 68.71 12.61 66.28 13.01 66.17"/>
      <polygon class="cls-4" points="12.61 66.28 15.4 68.71 15.48 69.86 12.69 67.43 12.61 66.28"/>
      <polygon class="cls-37" points="13.1 67.48 15.89 69.91 15.48 69.86 12.69 67.43 13.1 67.48"/>
      <g class="cls-26">
        <g class="cls-44">
          <g class="cls-26">
            <path class="cls-101" d="m11.47,74.15l2.79,2.43c-2.3-2-5.55-2.9-9.92-2.77l-2.79-2.43c4.36-.14,7.62.76,9.92,2.77"/>
          </g>
        </g>
      </g>
      <g class="cls-26">
        <g class="cls-84">
          <g class="cls-26">
            <path class="cls-101" d="m11.47,74.15l2.79,2.43c-2.3-2-5.55-2.9-9.92-2.77l-2.79-2.43c4.36-.14,7.62.76,9.92,2.77"/>
          </g>
        </g>
      </g>
      <g class="cls-26">
        <g class="cls-31">
          <g class="cls-26">
            <path class="cls-101" d="m11.47,74.15l2.79,2.43c-2.3-2-5.55-2.9-9.92-2.77l-2.79-2.43c4.36-.14,7.62.76,9.92,2.77"/>
          </g>
        </g>
      </g>
      <g class="cls-26">
        <g class="cls-39">
          <g class="cls-26">
            <path class="cls-101" d="m11.47,74.15l2.79,2.43c-2.3-2-5.55-2.9-9.92-2.77l-2.79-2.43c4.36-.14,7.62.76,9.92,2.77"/>
          </g>
        </g>
      </g>
      <g class="cls-26">
        <g class="cls-77">
          <g class="cls-26">
            <path class="cls-97" d="m10.84,74.93l2.79,2.43c-2.19-1.91-5.37-2.74-9.73-2.51l-2.79-2.43c4.36-.22,7.54.61,9.73,2.51"/>
          </g>
        </g>
      </g>
      <g class="cls-26">
        <g class="cls-60">
          <g class="cls-26">
            <path class="cls-97" d="m32.34,10.03l2.79,2.43c-2.5.18-4.59.66-6.28,1.46l-2.79-2.43c1.69-.8,3.77-1.29,6.28-1.46"/>
            <path class="cls-72" d="m26.06,11.5l2.79,2.43c-1.3.62-2.37,1.43-3.21,2.44-.59.72-1.06,1.51-1.43,2.38l-2.79-2.43c.37-.87.84-1.67,1.43-2.38.84-1.01,1.91-1.82,3.21-2.44"/>
            <path class="cls-97" d="m21.41,16.33l2.79,2.43c-2.11,5.03-.72,12.48.75,20.3,1.56,8.28,3.14,16.73.59,22.81l-2.79-2.43c2.56-6.08.97-14.53-.59-22.81-1.46-7.82-2.86-15.27-.75-20.3"/>
            <path class="cls-72" d="m22.75,59.44l2.79,2.43c-1.15,2.75-3.16,5.01-6.39,6.55l-2.79-2.43c3.23-1.54,5.23-3.8,6.39-6.55"/>
            <path class="cls-97" d="m16.36,65.99l2.79,2.43c-.55.26-1.13.5-1.76.72l-2.79-2.43c.62-.22,1.21-.46,1.76-.72"/>
          </g>
        </g>
      </g>
      <g class="cls-26">
        <g class="cls-89">
          <g class="cls-26">
            <path class="cls-97" d="m20.35,70.47l2.79,2.43c-1.77-1.54-4.12-2.59-7.25-2.99l-2.79-2.43c3.13.4,5.48,1.45,7.25,2.99"/>
          </g>
        </g>
      </g>
      <g class="cls-26">
        <g class="cls-8">
          <g class="cls-26">
            <path class="cls-97" d="m11.47,74.15l2.79,2.43c.19.16.37.33.54.51,2.41,2.45,3.38,6.07,3.66,10.31.25,3.74-.02,7.97-.31,12.31-.3,4.59-.61,9.25-.32,13.55.37,5.53,1.71,10.48,5.3,13.96.18.18.37.35.57.52l-2.79-2.43c-.19-.17-.38-.34-.57-.52-3.59-3.47-4.93-8.42-5.3-13.96-.28-4.3.02-8.96.32-13.55.28-4.34.56-8.57.31-12.31-.29-4.24-1.25-7.86-3.66-10.31-.18-.18-.36-.35-.54-.51"/>
          </g>
        </g>
      </g>
      <g class="cls-26">
        <g class="cls-52">
          <g class="cls-26">
            <path class="cls-101" d="m20.35,70.47l2.79,2.43c3.35,2.91,4.58,7.58,4.94,12.92.26,3.85.06,8.05-.14,12.21-.2,4.25-.4,8.4-.14,12.11.34,4.77,1.44,8.8,4.28,11.38.05.04.1.09.15.13l-2.79-2.43s-.1-.09-.15-.13c-2.84-2.58-3.94-6.61-4.28-11.38-.26-3.71-.07-7.86.14-12.11.2-4.16.4-8.36.14-12.21-.36-5.34-1.59-10.01-4.94-12.92"/>
          </g>
        </g>
      </g>
      <g class="cls-26">
        <g class="cls-24">
          <g class="cls-26">
            <path class="cls-97" d="m21.1,69.72l2.79,2.43c6.03,5.25,5.54,15.72,5.05,25.93-.45,9.47-.88,18.42,3.82,22.7.04.03.08.07.12.1l-2.79-2.43s-.08-.07-.12-.1c-4.7-4.28-4.28-13.22-3.82-22.7.49-10.21.98-20.68-5.05-25.93"/>
          </g>
        </g>
      </g>
      <g class="cls-26">
        <g class="cls-82">
          <g class="cls-26">
            <path class="cls-97" d="m41.66,121.7l2.79,2.43c-.63.08-1.24.14-1.83.18-4.56.32-7.96-.56-10.38-2.66l-2.79-2.43c2.42,2.11,5.82,2.98,10.38,2.66.59-.04,1.21-.1,1.83-.18"/>
          </g>
        </g>
      </g>
      <g class="cls-26">
        <g class="cls-30">
          <g class="cls-26">
            <path class="cls-101" d="m42.19,129.63l2.79,2.43c-.49.04-.97.09-1.44.12-9.17.64-15.68-.82-19.84-4.44l-2.79-2.43c4.16,3.62,10.66,5.08,19.84,4.44.48-.03.95-.08,1.44-.12"/>
          </g>
        </g>
      </g>
      <polygon class="cls-4" points="41.66 121.7 44.45 124.13 44.98 132.06 42.19 129.63 41.66 121.7"/>
      <path class="cls-55" d="m32.34,10.03c-4.44.31-7.56,1.59-9.49,3.91-4.03,4.85-2.4,13.51-.68,22.69,2.38,12.65,4.83,25.73-7.55,30.08,12.79,2.55,12.16,15.96,11.54,28.94-.45,9.47-.88,18.42,3.82,22.7,2.22,2,5.42,2.85,9.77,2.54.74-.05,1.5-.13,2.31-.25l.54-.07.67,9.96-.48.04c-.67.07-1.33.12-1.97.16-9.88.69-16.81-1.02-21.15-5.23-6.71-6.5-5.98-17.57-5.27-28.28.59-9.03,1.15-17.56-3.07-21.86-2.19-2.22-5.52-3.19-10.2-2.95l-.48.02-.62-9.27.49-.04c4.71-.4,7.92-1.82,9.8-4.33,3.59-4.81,1.87-13.13.06-21.94-2.15-10.46-4.38-21.27,1.35-28.61C15.43,3.49,22.06.82,31.95.13c.67-.05,1.35-.09,2.05-.12l.49-.02.67,9.96h-.54c-.79,0-1.56.02-2.27.07Zm-10.26,3.28c2.11-2.53,5.44-3.94,10.15-4.27.59-.04,1.21-.07,1.85-.08l-.53-7.93c-.53.03-1.05.06-1.56.09-9.58.67-15.97,3.21-19.51,7.73-3.02,3.86-3.7,8.84-3.34,14.25.29,4.34,1.24,8.97,2.18,13.53.88,4.24,1.73,8.36,1.99,12.09.29,4.22-.17,7.91-2.22,10.66-1.99,2.66-5.28,4.2-10.03,4.68l.49,7.32c4.72-.15,8.14.92,10.46,3.28,2.41,2.45,3.38,6.07,3.66,10.31.25,3.74-.02,7.97-.31,12.31-.3,4.59-.61,9.25-.32,13.55.37,5.53,1.71,10.48,5.3,13.96,4.12,4,10.8,5.63,20.4,4.96.48-.03.95-.08,1.44-.12l-.53-7.93c-.63.08-1.24.14-1.83.18-4.65.33-8.1-.6-10.53-2.8-2.84-2.58-3.94-6.61-4.28-11.38-.26-3.71-.07-7.86.14-12.11.2-4.16.4-8.36.14-12.21-.55-8.17-3.15-14.74-12.19-15.91l-.41-.05-.08-1.15.4-.11c8.83-2.46,10.53-9.29,9.97-17.39-.27-3.82-1.03-7.91-1.79-11.97-.77-4.12-1.53-8.14-1.77-11.79-.31-4.7.23-8.79,2.67-11.72"/>
      <path class="cls-22" d="m31.99,1.13c.51-.04,1.03-.06,1.56-.09l.53,7.93c-.64,0-1.26.03-1.85.08-4.72.33-8.04,1.73-10.15,4.27-2.44,2.93-2.98,7.02-2.67,11.72.24,3.65,1,7.67,1.77,11.79.76,4.05,1.53,8.15,1.79,11.97.57,8.1-1.13,14.93-9.97,17.39l-.4.11.08,1.15.41.05c9.04,1.17,11.64,7.74,12.19,15.91.26,3.85.06,8.05-.14,12.21-.2,4.25-.4,8.4-.14,12.11.34,4.77,1.44,8.8,4.28,11.38,2.43,2.2,5.88,3.12,10.53,2.8.59-.04,1.21-.1,1.83-.18l.53,7.93c-.49.04-.97.09-1.44.12-9.6.67-16.28-.96-20.4-4.96-3.59-3.47-4.93-8.42-5.3-13.96-.28-4.3.02-8.96.32-13.55.28-4.34.56-8.57.31-12.31-.29-4.24-1.25-7.86-3.66-10.31-2.32-2.36-5.74-3.43-10.46-3.28l-.49-7.32c4.75-.49,8.03-2.02,10.03-4.68,2.05-2.75,2.52-6.44,2.22-10.66-.26-3.72-1.11-7.85-1.99-12.09-.94-4.56-1.89-9.18-2.18-13.53-.36-5.41.32-10.39,3.34-14.25,3.53-4.53,9.93-7.06,19.51-7.73Z"/>
      <g class="cls-26">
        <g class="cls-9">
          <g class="cls-26">
            <path class="cls-97" d="m42.77,130.57l2.79,2.43c-.67.07-1.33.12-1.97.16-9.44.66-16.18-.87-20.55-4.68l-2.79-2.43c4.37,3.81,11.11,5.34,20.55,4.68.65-.05,1.3-.09,1.97-.16"/>
          </g>
        </g>
      </g>
      <polygon class="cls-97" points="43.25 130.53 46.04 132.96 45.56 133 42.77 130.57 43.25 130.53"/>
      <polygon class="cls-50" points="42.58 120.57 45.37 123 46.04 132.96 43.25 130.53 42.58 120.57"/>
    </g>
    <g class="cls-26">
      <g class="cls-26">
        <g class="cls-83">
          <g class="cls-26">
            <path class="cls-97" d="m41.52,47.26l2.79,2.43c0,.17.01.35.02.52.16,2.6,1.16,4.75,2.86,6.23l-2.79-2.43c-1.71-1.48-2.7-3.63-2.86-6.23-.01-.17-.02-.34-.02-.52"/>
          </g>
        </g>
      </g>
      <g class="cls-26">
        <g class="cls-81">
          <g class="cls-26">
            <path class="cls-97" d="m41.52,47.26l2.79,2.43c0,.17.01.35.02.52.16,2.6,1.16,4.75,2.86,6.23l-2.79-2.43c-1.71-1.48-2.7-3.63-2.86-6.23-.01-.17-.02-.34-.02-.52"/>
          </g>
        </g>
      </g>
      <g class="cls-26">
        <g class="cls-69">
          <g class="cls-26">
            <path class="cls-97" d="m41.52,47.26l2.79,2.43c0,.17.01.35.02.52.16,2.6,1.16,4.75,2.86,6.23l-2.79-2.43c-1.71-1.48-2.7-3.63-2.86-6.23-.01-.17-.02-.34-.02-.52"/>
          </g>
        </g>
      </g>
      <g class="cls-26">
        <g class="cls-7">
          <g class="cls-26">
            <path class="cls-97" d="m41.52,47.26l2.79,2.43c0,.17.01.35.02.52.16,2.6,1.16,4.75,2.86,6.23l-2.79-2.43c-1.71-1.48-2.7-3.63-2.86-6.23-.01-.17-.02-.34-.02-.52"/>
          </g>
        </g>
      </g>
      <g class="cls-26">
        <g class="cls-40">
          <g class="cls-26">
            <path class="cls-72" d="m46.43,37.99l2.79,2.43c-.46.22-.9.47-1.31.76-.21.15-.41.3-.61.46-1.05.87-1.85,1.93-2.36,3.16l-2.79-2.43c.51-1.22,1.31-2.29,2.36-3.16.19-.16.4-.31.61-.46.42-.29.86-.54,1.31-.76"/>
          </g>
        </g>
      </g>
      <g class="cls-26">
        <g class="cls-59">
          <g class="cls-26">
            <path class="cls-72" d="m46.43,37.99l2.79,2.43c-.46.22-.9.47-1.31.76-.21.15-.41.3-.61.46-1.05.87-1.85,1.93-2.36,3.16l-2.79-2.43c.51-1.22,1.31-2.29,2.36-3.16.19-.16.4-.31.61-.46.42-.29.86-.54,1.31-.76"/>
            <path class="cls-97" d="m42.15,42.36l2.79,2.43c-.55,1.3-.78,2.79-.67,4.39.01.17.02.33.04.5l-2.79-2.43c-.02-.17-.03-.34-.04-.5-.11-1.61.12-3.09.67-4.39"/>
          </g>
        </g>
      </g>
      <g class="cls-26">
        <g class="cls-90">
          <g class="cls-26">
            <path class="cls-97" d="m56.96,39.17l2.79,2.43c-.5-.44-1.07-.82-1.69-1.13-1.57-.8-3.37-1.13-5.16-1.01-1.27.09-2.53.41-3.68.96l-2.79-2.43c1.15-.55,2.41-.87,3.68-.96,1.78-.12,3.59.21,5.16,1.01.62.32,1.19.7,1.69,1.13"/>
            <path class="cls-72" d="m46.43,37.99l2.79,2.43c-.46.22-.9.47-1.31.76-.21.15-.41.3-.61.46-1.05.87-1.85,1.93-2.36,3.16l-2.79-2.43c.51-1.22,1.31-2.29,2.36-3.16.19-.16.4-.31.61-.46.42-.29.86-.54,1.31-.76"/>
          </g>
        </g>
      </g>
      <g class="cls-26">
        <g class="cls-56">
          <g class="cls-26">
            <path class="cls-97" d="m56.96,39.17l2.79,2.43c-.5-.44-1.07-.82-1.69-1.13-1.57-.8-3.37-1.13-5.16-1.01-1.27.09-2.53.41-3.68.96l-2.79-2.43c1.15-.55,2.41-.87,3.68-.96,1.78-.12,3.59.21,5.16,1.01.62.32,1.19.7,1.69,1.13"/>
          </g>
        </g>
      </g>
      <g class="cls-26">
        <g class="cls-29">
          <g class="cls-26">
            <path class="cls-97" d="m42.15,42.36l2.79,2.43c-.55,1.3-.78,2.79-.67,4.39.01.17.02.33.04.5l-2.79-2.43c-.02-.17-.03-.34-.04-.5-.11-1.61.12-3.09.67-4.39"/>
          </g>
        </g>
      </g>
      <g class="cls-26">
        <g class="cls-35">
          <g class="cls-26">
            <path class="cls-97" d="m42.15,42.36l2.79,2.43c-.55,1.3-.78,2.79-.67,4.39.01.17.02.33.04.5l-2.79-2.43c-.02-.17-.03-.34-.04-.5-.11-1.61.12-3.09.67-4.39"/>
          </g>
        </g>
      </g>
      <g class="cls-26">
        <g class="cls-47">
          <g class="cls-26">
            <path class="cls-97" d="m41.52,47.26l2.79,2.43c0,.17.01.35.02.52.16,2.6,1.16,4.75,2.86,6.23l-2.79-2.43c-1.71-1.48-2.7-3.63-2.86-6.23-.01-.17-.02-.34-.02-.52"/>
          </g>
        </g>
      </g>
      <g class="cls-26">
        <g class="cls-98">
          <g class="cls-26">
            <path class="cls-97" d="m41.52,47.26l2.79,2.43c0,.17.01.35.02.52.16,2.6,1.16,4.75,2.86,6.23l-2.79-2.43c-1.71-1.48-2.7-3.63-2.86-6.23-.01-.17-.02-.34-.02-.52"/>
          </g>
        </g>
      </g>
      <g class="cls-26">
        <g class="cls-80">
          <g class="cls-26">
            <path class="cls-97" d="m41.52,47.26l2.79,2.43c0,.17.01.35.02.52.16,2.6,1.16,4.75,2.86,6.23l-2.79-2.43c-1.71-1.48-2.7-3.63-2.86-6.23-.01-.17-.02-.34-.02-.52"/>
          </g>
        </g>
      </g>
      <g class="cls-26">
        <g class="cls-57">
          <g class="cls-26">
            <path class="cls-97" d="m56.96,39.17l2.79,2.43c-.5-.44-1.07-.82-1.69-1.13-1.57-.8-3.37-1.13-5.16-1.01-1.27.09-2.53.41-3.68.96l-2.79-2.43c1.15-.55,2.41-.87,3.68-.96,1.78-.12,3.59.21,5.16,1.01.62.32,1.19.7,1.69,1.13"/>
          </g>
        </g>
      </g>
      <g class="cls-26">
        <g class="cls-70">
          <g class="cls-26">
            <path class="cls-97" d="m41.52,47.26l2.79,2.43c0,.17.01.35.02.52.16,2.6,1.16,4.75,2.86,6.23l-2.79-2.43c-1.71-1.48-2.7-3.63-2.86-6.23-.01-.17-.02-.34-.02-.52"/>
          </g>
        </g>
      </g>
      <g class="cls-26">
        <g class="cls-18">
          <g class="cls-26">
            <path class="cls-97" d="m57.64,38.43l2.79,2.43c2.03,1.76,3.15,4.35,3.22,7.5l-2.79-2.43c-.07-3.15-1.2-5.74-3.22-7.5"/>
          </g>
        </g>
      </g>
      <g class="cls-26">
        <g class="cls-13">
          <g class="cls-26">
            <path class="cls-97" d="m57.64,38.43l2.79,2.43c2.03,1.76,3.15,4.35,3.22,7.5l-2.79-2.43c-.07-3.15-1.2-5.74-3.22-7.5"/>
          </g>
        </g>
      </g>
      <g class="cls-26">
        <g class="cls-41">
          <g class="cls-26">
            <path class="cls-97" d="m57.64,38.43l2.79,2.43c2.03,1.76,3.15,4.35,3.22,7.5l-2.79-2.43c-.07-3.15-1.2-5.74-3.22-7.5"/>
          </g>
        </g>
      </g>
      <g class="cls-26">
        <g class="cls-103">
          <g class="cls-26">
            <path class="cls-97" d="m57.64,38.43l2.79,2.43c2.03,1.76,3.15,4.35,3.22,7.5l-2.79-2.43c-.07-3.15-1.2-5.74-3.22-7.5"/>
          </g>
        </g>
      </g>
      <g class="cls-26">
        <g class="cls-46">
          <g class="cls-26">
            <path class="cls-101" d="m56.96,39.17l2.79,2.43c1.72,1.49,2.72,3.66,2.89,6.32.01.17.02.34.02.51l-2.79-2.43c0-.17-.01-.34-.02-.51-.17-2.66-1.17-4.83-2.89-6.32"/>
          </g>
        </g>
      </g>
      <g class="cls-26">
        <g class="cls-27">
          <g class="cls-26">
            <path class="cls-97" d="m57.64,38.43l2.79,2.43c2.03,1.76,3.15,4.35,3.22,7.5l-2.79-2.43c-.07-3.15-1.2-5.74-3.22-7.5"/>
          </g>
        </g>
      </g>
      <g class="cls-26">
        <g class="cls-45">
          <g class="cls-26">
            <path class="cls-101" d="m59.87,46l2.79,2.43c.03.22.05.44.06.66.1,1.55-.12,2.98-.65,4.24l-2.79-2.43c.53-1.26.75-2.69.65-4.24-.01-.22-.04-.44-.06-.66"/>
            <path class="cls-32" d="m59.28,50.9l2.79,2.43c-.58,1.39-1.53,2.57-2.83,3.49-.44.31-.9.58-1.39.81l-2.79-2.43c.49-.23.95-.5,1.39-.81,1.29-.92,2.25-2.1,2.83-3.49"/>
            <path class="cls-101" d="m55.06,55.2l2.79,2.43c-1.16.55-2.43.88-3.72.97-1.78.12-3.59-.2-5.17-1-.18-.09-.36-.19-.53-.29-.44-.26-.85-.55-1.22-.88l-2.79-2.43c.37.33.78.62,1.22.88.17.1.35.2.53.29,1.59.8,3.4,1.12,5.17,1,1.29-.09,2.56-.42,3.72-.97"/>
          </g>
        </g>
      </g>
      <g class="cls-26">
        <g class="cls-67">
          <g class="cls-26">
            <path class="cls-97" d="m60.86,45.93l2.79,2.43c.24,1.95.02,3.76-.65,5.34l-2.79-2.43c.66-1.58.89-3.39.65-5.34"/>
          </g>
        </g>
      </g>
      <g class="cls-26">
        <g class="cls-34">
          <g class="cls-26">
            <path class="cls-97" d="m60.86,45.93l2.79,2.43c.24,1.95.02,3.76-.65,5.34l-2.79-2.43c.66-1.58.89-3.39.65-5.34"/>
          </g>
        </g>
      </g>
      <path class="cls-22" d="m50.11,37.03c1.78-.12,3.59.21,5.16,1.01,2.75,1.4,4.36,4.02,4.58,7.45.01.17.02.34.02.51.03.22.05.44.06.66.22,3.25-1.01,5.97-3.48,7.73-1.49,1.05-3.28,1.65-5.11,1.78s-3.59-.2-5.17-1c-.18-.09-.36-.19-.53-.29-2.45-1.45-3.89-3.94-4.09-7.11-.01-.16-.02-.33-.02-.5-.02-.19-.03-.35-.04-.52-.2-3.14.87-5.77,3.03-7.55.19-.16.4-.31.61-.46,1.46-1.01,3.22-1.59,4.99-1.72Z"/>
      <g class="cls-26">
        <g class="cls-17">
          <g class="cls-26">
            <path class="cls-97" d="m60.86,45.93l2.79,2.43c.24,1.95.02,3.76-.65,5.34l-2.79-2.43c.66-1.58.89-3.39.65-5.34"/>
          </g>
        </g>
      </g>
      <g class="cls-26">
        <g class="cls-87">
          <g class="cls-26">
            <path class="cls-97" d="m60.86,45.93l2.79,2.43c.24,1.95.02,3.76-.65,5.34l-2.79-2.43c.66-1.58.89-3.39.65-5.34"/>
            <path class="cls-72" d="m60.22,51.28l2.79,2.43c-.65,1.55-1.73,2.89-3.2,3.93-.48.34-1,.64-1.54.9l-2.79-2.43c.54-.26,1.05-.56,1.54-.9,1.47-1.04,2.55-2.37,3.2-3.93"/>
          </g>
        </g>
      </g>
      <g class="cls-26">
        <g class="cls-75">
          <g class="cls-26">
            <path class="cls-72" d="m60.22,51.28l2.79,2.43c-.65,1.55-1.73,2.89-3.2,3.93-.48.34-1,.64-1.54.9l-2.79-2.43c.54-.26,1.05-.56,1.54-.9,1.47-1.04,2.55-2.37,3.2-3.93"/>
            <path class="cls-97" d="m55.48,56.1l2.79,2.43c-1.27.61-2.67.96-4.08,1.06-1.95.14-3.95-.23-5.69-1.1-.73-.36-1.38-.8-1.96-1.31l-2.79-2.43c.58.51,1.24.95,1.96,1.31,1.74.87,3.74,1.23,5.69,1.1,1.41-.1,2.81-.45,4.08-1.06"/>
          </g>
        </g>
      </g>
      <path class="cls-55" d="m60.86,45.93c.48,3.87-.88,7.18-3.85,9.27-1.63,1.16-3.61,1.82-5.62,1.96s-3.95-.23-5.69-1.1c-3.24-1.63-5.08-4.73-5.18-8.74-.42-3.99,1.01-7.32,4.03-9.41,1.61-1.11,3.53-1.74,5.49-1.88s3.95.22,5.68,1.11c3.23,1.64,5.05,4.76,5.14,8.79Zm-4.41,8.45c2.47-1.75,3.7-4.48,3.48-7.73-.01-.22-.04-.44-.06-.66,0-.17-.01-.34-.02-.51-.22-3.44-1.83-6.06-4.58-7.45-1.57-.8-3.37-1.13-5.16-1.01s-3.53.71-4.99,1.72c-.21.15-.41.3-.61.46-2.17,1.79-3.24,4.43-3.03,7.55.01.17.02.33.04.5,0,.17.01.35.02.52.2,3.17,1.63,5.66,4.09,7.11.17.1.35.2.53.29,1.59.8,3.4,1.12,5.17,1s3.63-.73,5.11-1.78"/>
    </g>
    <g class="cls-26">
      <g class="cls-26">
        <g class="cls-49">
          <g class="cls-26">
            <path class="cls-97" d="m88.06,59.17l2.79,2.43c-.5-.44-1.07-.82-1.69-1.13-1.57-.8-3.37-1.12-5.16-1-1.28.09-2.54.41-3.7.96l-2.79-2.43c1.15-.55,2.42-.87,3.7-.96,1.78-.12,3.59.2,5.16,1,.62.32,1.19.7,1.69,1.13"/>
            <path class="cls-72" d="m77.52,57.99l2.79,2.43c-.45.21-.88.46-1.3.75-1.36.94-2.36,2.17-2.97,3.62l-2.79-2.43c.61-1.45,1.61-2.68,2.97-3.62.41-.28.84-.53,1.3-.75"/>
            <path class="cls-97" d="m73.26,62.36l2.79,2.43c-.55,1.31-.78,2.79-.67,4.4.01.16.02.32.04.48l-2.79-2.43c-.02-.16-.03-.32-.04-.48-.11-1.61.12-3.1.67-4.4"/>
          </g>
        </g>
      </g>
      <g class="cls-26">
        <g class="cls-5">
          <g class="cls-26">
            <path class="cls-97" d="m72.63,67.24l2.79,2.43c0,.2.01.37.02.54.17,2.61,1.17,4.75,2.87,6.23l-2.79-2.43c-1.7-1.48-2.69-3.62-2.87-6.23-.01-.17-.02-.34-.02-.54"/>
          </g>
        </g>
      </g>
      <g class="cls-26">
        <g class="cls-28">
          <g class="cls-26">
            <path class="cls-101" d="m88.06,59.17l2.79,2.43c1.72,1.49,2.72,3.66,2.89,6.32.01.17.02.34.02.51l-2.79-2.43c0-.17-.01-.34-.02-.51-.17-2.66-1.17-4.83-2.89-6.32"/>
          </g>
        </g>
      </g>
      <g class="cls-26">
        <g class="cls-15">
          <g class="cls-26">
            <path class="cls-101" d="m88.06,59.17l2.79,2.43c1.72,1.49,2.72,3.66,2.89,6.32.01.17.02.34.02.51l-2.79-2.43c0-.17-.01-.34-.02-.51-.17-2.66-1.17-4.83-2.89-6.32"/>
          </g>
        </g>
      </g>
      <g class="cls-26">
        <g class="cls-65">
          <g class="cls-26">
            <path class="cls-101" d="m90.97,66l2.79,2.43c.03.22.05.44.06.66.1,1.55-.12,2.98-.65,4.24l-2.79-2.43c.53-1.26.75-2.69.65-4.24-.01-.22-.04-.44-.06-.66"/>
          </g>
        </g>
      </g>
      <g class="cls-26">
        <g class="cls-94">
          <g class="cls-26">
            <path class="cls-101" d="m90.97,66l2.79,2.43c.03.22.05.44.06.66.1,1.55-.12,2.98-.65,4.24l-2.79-2.43c.53-1.26.75-2.69.65-4.24-.01-.22-.04-.44-.06-.66"/>
          </g>
        </g>
      </g>
      <g class="cls-26">
        <g class="cls-64">
          <g class="cls-26">
            <path class="cls-97" d="m88.74,58.43l2.79,2.43c2.03,1.77,3.16,4.36,3.23,7.5l-2.79-2.43c-.07-3.14-1.2-5.74-3.23-7.5"/>
          </g>
        </g>
      </g>
      <g class="cls-26">
        <g class="cls-96">
          <g class="cls-26">
            <path class="cls-32" d="m90.38,70.9l2.79,2.43c-.58,1.39-1.53,2.57-2.83,3.49-.44.31-.91.58-1.39.81l-2.79-2.43c.49-.23.95-.5,1.39-.81,1.29-.92,2.25-2.1,2.83-3.49"/>
            <path class="cls-101" d="m86.16,75.2l2.79,2.43c-1.16.55-2.43.88-3.72.97-1.78.12-3.59-.2-5.17-1-.65-.32-1.23-.71-1.75-1.16l-2.79-2.43c.52.45,1.1.84,1.75,1.16,1.59.8,3.39,1.12,5.17,1,1.29-.09,2.56-.42,3.72-.97"/>
          </g>
        </g>
      </g>
      <g class="cls-26">
        <g class="cls-62">
          <g class="cls-26">
            <path class="cls-101" d="m90.97,66l2.79,2.43c.03.22.05.44.06.66.1,1.55-.12,2.98-.65,4.24l-2.79-2.43c.53-1.26.75-2.69.65-4.24-.01-.22-.04-.44-.06-.66"/>
            <path class="cls-32" d="m90.38,70.9l2.79,2.43c-.58,1.39-1.53,2.57-2.83,3.49-.44.31-.91.58-1.39.81l-2.79-2.43c.49-.23.95-.5,1.39-.81,1.29-.92,2.25-2.1,2.83-3.49"/>
          </g>
        </g>
      </g>
      <path class="cls-22" d="m81.22,57.03c1.78-.12,3.59.2,5.16,1,2.75,1.4,4.36,4.02,4.58,7.45.01.17.02.34.02.51.03.22.05.44.06.66.22,3.25-1.01,5.97-3.48,7.73-1.5,1.05-3.28,1.65-5.11,1.78s-3.59-.2-5.17-1c-2.76-1.38-4.39-3.98-4.62-7.39-.01-.16-.02-.33-.02-.49-.02-.21-.03-.36-.04-.52-.22-3.42,1.07-6.24,3.64-8.02,1.46-1.01,3.22-1.59,4.99-1.71Z"/>
      <g class="cls-26">
        <g class="cls-93">
          <g class="cls-26">
            <path class="cls-97" d="m91.97,65.93l2.79,2.43c.24,1.95.02,3.76-.65,5.34l-2.79-2.43c.66-1.58.89-3.39.65-5.34"/>
            <path class="cls-72" d="m91.32,71.27l2.79,2.43c-.65,1.56-1.73,2.89-3.2,3.93-.48.34-1,.64-1.54.9l-2.79-2.43c.54-.26,1.05-.56,1.54-.9,1.47-1.04,2.54-2.37,3.2-3.93"/>
            <path class="cls-97" d="m86.59,76.1l2.79,2.43c-1.27.61-2.67.96-4.08,1.06-1.95.14-3.95-.22-5.69-1.1-.73-.36-1.38-.8-1.96-1.31l-2.79-2.43c.58.51,1.24.95,1.96,1.31,1.74.88,3.74,1.23,5.69,1.1,1.41-.1,2.81-.45,4.08-1.06"/>
          </g>
        </g>
      </g>
      <path class="cls-55" d="m91.97,65.93c.48,3.87-.89,7.18-3.85,9.27-1.63,1.16-3.61,1.82-5.62,1.96s-3.95-.22-5.69-1.1c-3.24-1.63-5.08-4.73-5.18-8.74-.42-3.98,1.01-7.32,4.03-9.41,1.61-1.1,3.53-1.74,5.49-1.88s3.95.23,5.68,1.11c3.23,1.64,5.05,4.76,5.14,8.79Zm-4.41,8.45c2.47-1.75,3.7-4.48,3.48-7.73-.01-.22-.04-.44-.06-.66,0-.17-.01-.34-.02-.51-.22-3.44-1.83-6.06-4.58-7.45-1.57-.8-3.37-1.12-5.16-1s-3.53.7-4.99,1.71c-2.58,1.78-3.87,4.62-3.64,8.02.01.16.02.32.04.48,0,.2.01.37.02.54.23,3.41,1.85,6.01,4.62,7.39,1.58.8,3.39,1.12,5.17,1s3.62-.73,5.11-1.78"/>
    </g>
    <g class="cls-26">
      <g class="cls-26">
        <g class="cls-73">
          <g class="cls-26">
            <path class="cls-97" d="m119.16,79.16l2.79,2.43c-.5-.44-1.06-.81-1.68-1.13-1.57-.8-3.37-1.12-5.16-1-1.28.09-2.54.41-3.7.96l-2.79-2.43c1.15-.55,2.42-.87,3.7-.96,1.78-.12,3.59.2,5.16,1,.62.32,1.18.7,1.68,1.13"/>
            <path class="cls-72" d="m108.62,77.99l2.79,2.43c-.45.21-.88.46-1.3.75-1.36.94-2.36,2.17-2.97,3.62l-2.79-2.43c.61-1.45,1.61-2.68,2.97-3.62.41-.28.84-.53,1.3-.75"/>
            <path class="cls-97" d="m104.36,82.36l2.79,2.43c-.55,1.31-.78,2.79-.67,4.4.01.16.02.32.04.48l-2.79-2.43c-.02-.16-.03-.32-.04-.48-.11-1.61.12-3.1.67-4.4"/>
          </g>
        </g>
      </g>
      <g class="cls-26">
        <g class="cls-78">
          <g class="cls-26">
            <path class="cls-97" d="m103.73,87.24l2.79,2.43c0,.2.01.37.02.54.17,2.61,1.17,4.75,2.87,6.24l-2.79-2.43c-1.7-1.48-2.7-3.62-2.87-6.24-.01-.17-.02-.34-.02-.54"/>
          </g>
        </g>
      </g>
      <g class="cls-26">
        <g class="cls-92">
          <g class="cls-26">
            <path class="cls-101" d="m117.25,95.21l2.79,2.43c-1.16.55-2.42.87-3.7.96-1.78.12-3.59-.21-5.17-1-.64-.32-1.23-.71-1.74-1.16l-2.79-2.43c.52.45,1.1.84,1.74,1.16,1.58.79,3.39,1.12,5.17,1,1.28-.09,2.55-.41,3.7-.96"/>
          </g>
        </g>
      </g>
      <g class="cls-26">
        <g class="cls-42">
          <g class="cls-26">
            <path class="cls-101" d="m119.16,79.16l2.79,2.43c1.72,1.5,2.72,3.67,2.89,6.33.01.17.02.34.02.51l-2.79-2.43c0-.17-.01-.34-.02-.51-.17-2.66-1.17-4.83-2.89-6.33"/>
          </g>
        </g>
      </g>
      <g class="cls-26">
        <g class="cls-85">
          <g class="cls-26">
            <path class="cls-101" d="m119.16,79.16l2.79,2.43c1.72,1.5,2.72,3.67,2.89,6.33.01.17.02.34.02.51l-2.79-2.43c0-.17-.01-.34-.02-.51-.17-2.66-1.17-4.83-2.89-6.33"/>
          </g>
        </g>
      </g>
      <g class="cls-26">
        <g class="cls-10">
          <g class="cls-26">
            <path class="cls-101" d="m119.16,79.16l2.79,2.43c1.72,1.5,2.72,3.67,2.89,6.33.01.17.02.34.02.51l-2.79-2.43c0-.17-.01-.34-.02-.51-.17-2.66-1.17-4.83-2.89-6.33"/>
          </g>
        </g>
      </g>
      <g class="cls-26">
        <g class="cls-48">
          <g class="cls-26">
            <path class="cls-101" d="m122.08,86.01l2.79,2.43c.03.22.05.44.06.66.1,1.55-.12,2.98-.65,4.24l-2.79-2.43c.53-1.26.75-2.69.65-4.24-.01-.22-.04-.44-.06-.66"/>
          </g>
        </g>
      </g>
      <g class="cls-26">
        <g class="cls-66">
          <g class="cls-26">
            <path class="cls-101" d="m119.16,79.16l2.79,2.43c1.72,1.5,2.72,3.67,2.89,6.33.01.17.02.34.02.51l-2.79-2.43c0-.17-.01-.34-.02-.51-.17-2.66-1.17-4.83-2.89-6.33"/>
          </g>
        </g>
      </g>
      <g class="cls-26">
        <g class="cls-3">
          <g class="cls-26">
            <path class="cls-97" d="m119.84,78.43l2.79,2.43c2.03,1.77,3.16,4.36,3.23,7.5l-2.79-2.43c-.07-3.14-1.2-5.74-3.23-7.5"/>
          </g>
        </g>
      </g>
      <g class="cls-26">
        <g class="cls-6">
          <g class="cls-26">
            <path class="cls-32" d="m121.49,90.9l2.79,2.43c-.58,1.39-1.53,2.57-2.83,3.48-.45.32-.92.59-1.41.83l-2.79-2.43c.49-.23.97-.51,1.41-.83,1.3-.91,2.25-2.1,2.83-3.48"/>
            <path class="cls-101" d="m117.25,95.21l2.79,2.43c-1.16.55-2.42.87-3.7.96-1.78.12-3.59-.21-5.17-1-.64-.32-1.23-.71-1.74-1.16l-2.79-2.43c.52.45,1.1.84,1.74,1.16,1.58.79,3.39,1.12,5.17,1,1.28-.09,2.55-.41,3.7-.96"/>
          </g>
        </g>
      </g>
      <g class="cls-26">
        <g class="cls-14">
          <g class="cls-26">
            <path class="cls-101" d="m122.08,86.01l2.79,2.43c.03.22.05.44.06.66.1,1.55-.12,2.98-.65,4.24l-2.79-2.43c.53-1.26.75-2.69.65-4.24-.01-.22-.04-.44-.06-.66"/>
            <path class="cls-32" d="m121.49,90.9l2.79,2.43c-.58,1.39-1.53,2.57-2.83,3.48-.45.32-.92.59-1.41.83l-2.79-2.43c.49-.23.97-.51,1.41-.83,1.3-.91,2.25-2.1,2.83-3.48"/>
          </g>
        </g>
      </g>
      <path class="cls-22" d="m112.32,77.03c1.78-.12,3.59.2,5.16,1,2.75,1.41,4.36,4.03,4.58,7.46.01.17.02.34.02.51.03.22.05.44.06.66.22,3.25-1.01,5.97-3.48,7.72-1.5,1.06-3.28,1.66-5.11,1.79s-3.59-.21-5.17-1c-2.76-1.39-4.39-3.99-4.62-7.4-.01-.16-.02-.33-.02-.49-.02-.21-.03-.36-.04-.52-.22-3.42,1.07-6.24,3.64-8.02,1.46-1.01,3.22-1.59,4.99-1.71Z"/>
      <g class="cls-26">
        <g class="cls-88">
          <g class="cls-26">
            <path class="cls-97" d="m123.07,85.93l2.79,2.43c.24,1.95.01,3.76-.65,5.34l-2.79-2.43c.66-1.58.89-3.39.65-5.34"/>
            <path class="cls-72" d="m122.42,91.27l2.79,2.43c-.65,1.55-1.73,2.89-3.19,3.93-.48.34-1,.64-1.54.9l-2.79-2.43c.54-.26,1.05-.56,1.54-.9,1.47-1.04,2.54-2.37,3.19-3.93"/>
            <path class="cls-97" d="m117.69,96.1l2.79,2.43c-1.27.61-2.67.96-4.08,1.06-1.96.14-3.95-.22-5.69-1.1-.73-.37-1.39-.81-1.97-1.31l-2.79-2.43c.58.51,1.24.95,1.97,1.31,1.74.88,3.73,1.23,5.69,1.1,1.41-.1,2.81-.45,4.08-1.06"/>
          </g>
        </g>
      </g>
      <path class="cls-55" d="m123.07,85.93c.48,3.87-.89,7.18-3.85,9.27-1.63,1.16-3.61,1.82-5.62,1.96s-3.95-.22-5.69-1.1c-3.24-1.63-5.08-4.73-5.18-8.74-.42-3.98,1.01-7.32,4.03-9.41,1.61-1.1,3.54-1.74,5.49-1.88s3.95.23,5.68,1.11c3.23,1.64,5.05,4.76,5.14,8.79Zm-4.41,8.45c2.48-1.74,3.7-4.47,3.48-7.72-.01-.22-.04-.44-.06-.66,0-.17-.01-.34-.02-.51-.22-3.44-1.83-6.06-4.58-7.46-1.57-.8-3.37-1.12-5.16-1s-3.53.7-4.99,1.71c-2.58,1.78-3.87,4.62-3.64,8.02.01.16.02.32.04.48,0,.2.01.37.02.54.23,3.41,1.85,6.01,4.62,7.4,1.58.79,3.39,1.12,5.17,1s3.62-.73,5.11-1.79"/>
    </g>
    <g class="cls-26">
      <polygon class="cls-50" points="121.41 3.59 124.2 6.02 124.74 13.95 121.95 11.52 121.41 3.59"/>
      <polygon class="cls-97" points="121.55 12.58 124.34 15.01 123.81 15.08 121.02 12.65 121.55 12.58"/>
      <g class="cls-26">
        <g class="cls-104">
          <g class="cls-26">
            <path class="cls-101" d="m134.24,14.08l2.79,2.43c-2.47-2.15-5.99-3.03-10.74-2.7-.5.04-1.02.08-1.55.14l-2.79-2.43c.53-.06,1.05-.11,1.55-.14,4.75-.33,8.28.55,10.74,2.7"/>
          </g>
        </g>
      </g>
      <g class="cls-26">
        <g class="cls-95">
          <g class="cls-26">
            <path class="cls-101" d="m134.24,14.08l2.79,2.43c-2.47-2.15-5.99-3.03-10.74-2.7-.5.04-1.02.08-1.55.14l-2.79-2.43c.53-.06,1.05-.11,1.55-.14,4.75-.33,8.28.55,10.74,2.7"/>
          </g>
        </g>
      </g>
      <g class="cls-26">
        <g class="cls-102">
          <g class="cls-26">
            <path class="cls-97" d="m133.6,14.84l2.79,2.43c-2.25-1.96-5.55-2.78-10-2.47-.65.05-1.34.12-2.05.22l-2.79-2.43c.71-.09,1.39-.17,2.05-.22,4.45-.31,7.75.51,10,2.47"/>
          </g>
        </g>
      </g>
      <g class="cls-26">
        <g class="cls-79">
          <g class="cls-26">
            <path class="cls-97" d="m142.75,7.95l2.79,2.43c-4.19-3.64-10.78-5.1-20.06-4.45-.42.03-.84.06-1.27.1l-2.79-2.43c.43-.04.85-.07,1.27-.1,9.29-.65,15.88.81,20.06,4.45"/>
          </g>
        </g>
      </g>
      <g class="cls-26">
        <g class="cls-76">
          <g class="cls-26">
            <path class="cls-101" d="m142.75,7.95l2.79,2.43c.2.18.4.36.59.55,3.5,3.41,4.83,8.24,5.19,13.64.29,4.34-.04,9.04-.36,13.67-.3,4.3-.59,8.5-.35,12.21.27,4.21,1.22,7.8,3.61,10.23.17.18.35.35.54.51l-2.79-2.43c-.19-.16-.37-.33-.54-.51-2.39-2.44-3.34-6.03-3.61-10.23-.24-3.71.05-7.9.35-12.21.32-4.63.65-9.34.36-13.67-.36-5.4-1.69-10.23-5.19-13.64-.19-.19-.39-.37-.59-.55"/>
          </g>
        </g>
      </g>
      <g class="cls-26">
        <g class="cls-99">
          <g class="cls-26">
            <path class="cls-101" d="m142.75,7.95l2.79,2.43c.2.18.4.36.59.55,3.5,3.41,4.83,8.24,5.19,13.64.29,4.34-.04,9.04-.36,13.67-.3,4.3-.59,8.5-.35,12.21.27,4.21,1.22,7.8,3.61,10.23.17.18.35.35.54.51l-2.79-2.43c-.19-.16-.37-.33-.54-.51-2.39-2.44-3.34-6.03-3.61-10.23-.24-3.71.05-7.9.35-12.21.32-4.63.65-9.34.36-13.67-.36-5.4-1.69-10.23-5.19-13.64-.19-.19-.39-.37-.59-.55"/>
          </g>
        </g>
      </g>
      <g class="cls-26">
        <g class="cls-2">
          <g class="cls-26">
            <path class="cls-97" d="m134.24,14.08l2.79,2.43c.08.07.15.13.22.2,2.78,2.57,3.83,6.52,4.13,11.18.23,3.62,0,7.67-.22,11.81-.23,4.2-.47,8.44-.21,12.32.35,5.19,1.59,9.72,4.91,12.62l-2.79-2.43c-3.32-2.89-4.56-7.43-4.91-12.62-.26-3.88-.02-8.12.21-12.32.23-4.14.45-8.19.22-11.81-.3-4.66-1.36-8.61-4.13-11.18-.07-.07-.15-.14-.22-.2"/>
          </g>
        </g>
      </g>
      <g class="cls-26">
        <g class="cls-1">
          <g class="cls-26">
            <path class="cls-101" d="m150.31,65.27l2.79,2.43c-3.12-.46-5.47-1.53-7.23-3.07l-2.79-2.43c1.76,1.54,4.12,2.61,7.23,3.07"/>
          </g>
        </g>
      </g>
      <g class="cls-26">
        <g class="cls-91">
          <g class="cls-26">
            <path class="cls-101" d="m142.75,7.95l2.79,2.43c.2.18.4.36.59.55,3.5,3.41,4.83,8.24,5.19,13.64.29,4.34-.04,9.04-.36,13.67-.3,4.3-.59,8.5-.35,12.21.27,4.21,1.22,7.8,3.61,10.23.17.18.35.35.54.51l-2.79-2.43c-.19-.16-.37-.33-.54-.51-2.39-2.44-3.34-6.03-3.61-10.23-.24-3.71.05-7.9.35-12.21.32-4.63.65-9.34.36-13.67-.36-5.4-1.69-10.23-5.19-13.64-.19-.19-.39-.37-.59-.55"/>
          </g>
        </g>
      </g>
      <g class="cls-26">
        <g class="cls-38">
          <g class="cls-26">
            <path class="cls-97" d="m143.42,7.19l2.79,2.43c.22.19.42.38.63.58,6.64,6.49,5.88,17.47,5.13,28.1-.62,8.95-1.21,17.41,2.98,21.68.15.16.31.31.48.45l-2.79-2.43c-.17-.14-.33-.3-.48-.45-4.19-4.27-3.6-12.72-2.98-21.68.75-10.63,1.51-21.61-5.13-28.1-.2-.2-.41-.39-.63-.58"/>
          </g>
        </g>
      </g>
      <g class="cls-26">
        <g class="cls-33">
          <g class="cls-26">
            <path class="cls-101" d="m150.31,65.27l2.79,2.43c-3.12-.46-5.47-1.53-7.23-3.07l-2.79-2.43c1.76,1.54,4.12,2.61,7.23,3.07"/>
          </g>
        </g>
      </g>
      <g class="cls-26">
        <g class="cls-16">
          <g class="cls-26">
            <path class="cls-97" d="m148.87,66.02l2.79,2.43c-2.76-.58-4.89-1.65-6.54-3.08l-2.79-2.43c1.65,1.43,3.78,2.5,6.54,3.08"/>
          </g>
        </g>
      </g>
      <polygon class="cls-51" points="150.71 65.33 153.5 67.76 153.1 67.7 150.31 65.27 150.71 65.33"/>
      <polygon class="cls-11" points="150.79 66.46 153.58 68.89 153.19 69 150.4 66.57 150.79 66.46"/>
      <polygon class="cls-50" points="150.71 65.33 153.5 67.76 153.58 68.89 150.79 66.46 150.71 65.33"/>
      <g class="cls-26">
        <g class="cls-12">
          <g class="cls-26">
            <path class="cls-97" d="m162.02,61.52l2.79,2.43c-4.43.16-7.73-.75-10.04-2.76l-2.79-2.43c2.31,2.01,5.61,2.92,10.04,2.76"/>
          </g>
        </g>
      </g>
      <g class="cls-26">
        <g class="cls-58">
          <g class="cls-26">
            <path class="cls-32" d="m156.49,70.39l2.79,2.43c-1.62.77-2.91,1.81-3.89,3.12-.5.67-.91,1.39-1.23,2.17l-2.79-2.43c.33-.77.73-1.5,1.23-2.17.98-1.31,2.27-2.35,3.89-3.12"/>
          </g>
        </g>
      </g>
      <g class="cls-26">
        <g class="cls-54">
          <g class="cls-26">
            <path class="cls-32" d="m156.49,70.39l2.79,2.43c-1.62.77-2.91,1.81-3.89,3.12-.5.67-.91,1.39-1.23,2.17l-2.79-2.43c.33-.77.73-1.5,1.23-2.17.98-1.31,2.27-2.35,3.89-3.12"/>
          </g>
        </g>
      </g>
      <g class="cls-26">
        <g class="cls-36">
          <g class="cls-26">
            <path class="cls-101" d="m162.51,68.83l2.79,2.43c-2.37.25-4.37.77-6.02,1.55l-2.79-2.43c1.65-.79,3.65-1.3,6.02-1.55"/>
            <path class="cls-32" d="m156.49,70.39l2.79,2.43c-1.62.77-2.91,1.81-3.89,3.12-.5.67-.91,1.39-1.23,2.17l-2.79-2.43c.33-.77.73-1.5,1.23-2.17.98-1.31,2.27-2.35,3.89-3.12"/>
          </g>
        </g>
      </g>
      <g class="cls-26">
        <g class="cls-61">
          <g class="cls-26">
            <path class="cls-101" d="m162.51,68.83l2.79,2.43c-2.37.25-4.37.77-6.02,1.55l-2.79-2.43c1.65-.79,3.65-1.3,6.02-1.55"/>
          </g>
        </g>
      </g>
      <g class="cls-26">
        <g class="cls-21">
          <g class="cls-26">
            <path class="cls-101" d="m162.51,68.83l2.79,2.43c-2.37.25-4.37.77-6.02,1.55l-2.79-2.43c1.65-.79,3.65-1.3,6.02-1.55"/>
          </g>
        </g>
      </g>
      <polygon class="cls-4" points="162.02 61.52 164.81 63.94 165.3 71.26 162.51 68.83 162.02 61.52"/>
      <polygon class="cls-50" points="162.95 60.47 165.74 62.9 166.36 72.17 163.57 69.74 162.95 60.47"/>
      <polygon class="cls-97" points="163.57 69.74 166.36 72.17 165.88 72.21 163.09 69.78 163.57 69.74"/>
      <g class="cls-26">
        <g class="cls-86">
          <g class="cls-26">
            <path class="cls-32" d="m156.49,70.39l2.79,2.43c-1.62.77-2.91,1.81-3.89,3.12-.5.67-.91,1.39-1.23,2.17l-2.79-2.43c.33-.77.73-1.5,1.23-2.17.98-1.31,2.27-2.35,3.89-3.12"/>
            <path class="cls-101" d="m151.37,75.68l2.79,2.43c-1.02,2.42-1.24,5.33-1.03,8.54.25,3.74,1.08,7.89,1.94,12.14.91,4.51,1.83,9.09,2.12,13.4.27,4.06-.02,7.88-1.41,11.19l-2.79-2.43c1.39-3.31,1.68-7.13,1.41-11.19-.29-4.31-1.21-8.89-2.12-13.4-.86-4.26-1.7-8.4-1.94-12.14-.21-3.21.01-6.12,1.03-8.54"/>
          </g>
        </g>
      </g>
      <polygon class="cls-50" points="129.52 124.25 132.31 126.68 132.84 134.62 130.05 132.19 129.52 124.25"/>
      <polygon class="cls-19" points="129.61 133.2 132.4 135.63 131.91 135.65 129.12 133.23 129.61 133.2"/>
      <g class="cls-26">
        <g class="cls-100">
          <g class="cls-26">
            <path class="cls-97" d="m150.4,66.57l2.79,2.43c-.97.28-1.85.62-2.65,1l-2.79-2.43c.8-.38,1.69-.72,2.65-1"/>
            <path class="cls-72" d="m147.74,67.57l2.79,2.43c-3.05,1.45-4.94,3.6-6.04,6.22l-2.79-2.43c1.1-2.62,3-4.77,6.04-6.22"/>
            <path class="cls-97" d="m141.7,73.79l2.79,2.43c-1.21,2.89-1.46,6.34-1.22,10.07.26,3.91,1.05,8.11,1.84,12.27.78,4.14,1.54,8.17,1.79,11.84.23,3.45.01,6.59-1.08,9.18l-2.79-2.43c1.09-2.59,1.31-5.73,1.08-9.18-.25-3.67-1.01-7.7-1.79-11.84-.79-4.16-1.58-8.36-1.84-12.27-.24-3.73,0-7.18,1.22-10.07"/>
            <path class="cls-72" d="m143.03,117.15l2.79,2.43c-.4.95-.92,1.83-1.57,2.63-.96,1.17-2.18,2.11-3.66,2.81l-2.79-2.43c1.49-.71,2.7-1.64,3.66-2.81.65-.8,1.17-1.68,1.57-2.63"/>
            <path class="cls-97" d="m137.8,122.59l2.79,2.43c-1.84.88-4.1,1.4-6.8,1.59-.48.03-.97.06-1.48.07l-2.79-2.43c.51,0,1.01-.03,1.48-.07,2.7-.19,4.96-.72,6.8-1.59"/>
          </g>
        </g>
      </g>
      <g class="cls-26">
        <g class="cls-71">
          <g class="cls-26">
            <path class="cls-101" d="m144.92,129.06l2.79,2.43c-3.47,1.65-7.93,2.67-13.44,3.05-.47.03-.94.06-1.43.08l-2.79-2.43c.48-.02.96-.05,1.43-.08,5.51-.39,9.97-1.4,13.44-3.05"/>
          </g>
        </g>
      </g>
      <g class="cls-26">
        <g class="cls-20">
          <g class="cls-26">
            <path class="cls-101" d="m151.37,75.68l2.79,2.43c-1.02,2.42-1.24,5.33-1.03,8.54.25,3.74,1.08,7.89,1.94,12.14.91,4.51,1.83,9.09,2.12,13.4.27,4.06-.02,7.88-1.41,11.19l-2.79-2.43c1.39-3.31,1.68-7.13,1.41-11.19-.29-4.31-1.21-8.89-2.12-13.4-.86-4.26-1.7-8.4-1.94-12.14-.21-3.21.01-6.12,1.03-8.54"/>
            <path class="cls-32" d="m153,120.94l2.79,2.43c-.51,1.21-1.16,2.35-1.99,3.4-1.51,1.92-3.53,3.49-6.09,4.71l-2.79-2.43c2.56-1.22,4.58-2.79,6.09-4.71.83-1.06,1.48-2.19,1.99-3.4"/>
            <path class="cls-101" d="m144.92,129.06l2.79,2.43c-3.47,1.65-7.93,2.67-13.44,3.05-.47.03-.94.06-1.43.08l-2.79-2.43c.48-.02.96-.05,1.43-.08,5.51-.39,9.97-1.4,13.44-3.05"/>
          </g>
        </g>
      </g>
      <path class="cls-22" d="m122.69,3.5c9.74-.68,16.51.95,20.66,5,3.5,3.41,4.83,8.24,5.19,13.64.29,4.34-.04,9.04-.36,13.67-.3,4.3-.59,8.5-.35,12.21.27,4.21,1.22,7.8,3.61,10.23,2.33,2.37,5.79,3.44,10.58,3.27l.49,7.32c-4.69.5-7.94,2.02-9.91,4.68-2.06,2.76-2.54,6.47-2.26,10.71.25,3.74,1.08,7.89,1.94,12.14.91,4.51,1.83,9.09,2.12,13.4.37,5.54-.3,10.64-3.39,14.59-3.56,4.54-9.96,7.09-19.53,7.76-.47.03-.94.06-1.43.08l-.53-7.94c.51,0,1.01-.03,1.48-.07,4.88-.34,8.31-1.79,10.46-4.41,2.44-2.97,2.97-7.09,2.65-11.81-.25-3.67-1.01-7.7-1.79-11.84-.79-4.16-1.58-8.36-1.84-12.27-.52-8,1.21-14.75,9.92-17.29l.39-.11-.08-1.13-.4-.06c-8.99-1.33-11.61-7.74-12.14-15.69-.26-3.88-.02-8.12.21-12.32.23-4.14.45-8.19.22-11.81-.3-4.66-1.36-8.61-4.13-11.18-2.48-2.3-6.07-3.24-10.97-2.9-.5.04-1.02.08-1.55.14l-.53-7.93c.43-.04.85-.07,1.27-.1Z"/>
      <path class="cls-55" d="m162.47,60.49l.48-.02.62,9.27-.48.04c-4.66.41-7.82,1.83-9.69,4.33-3.61,4.83-1.92,13.2-.14,22.06,2.12,10.53,4.31,21.41-1.47,28.79-3.74,4.78-10.39,7.45-20.27,8.14-.63.04-1.26.08-1.91.11l-.48.02-.67-9.95h.53c.68-.01,1.32-.04,1.95-.08,4.58-.32,7.78-1.65,9.75-4.04,4.03-4.91,2.39-13.62.65-22.83-2.39-12.7-4.88-25.81,7.53-30.29-12.93-2.74-12.2-15.99-11.48-28.8.51-9.23,1-17.96-3.59-22.21-2.26-2.09-5.61-2.96-10.19-2.64-.65.05-1.34.12-2.05.22l-.53.06-.67-9.95.48-.05c.6-.06,1.19-.1,1.77-.14,10.04-.7,17.07,1.01,21.43,5.27,6.64,6.49,5.88,17.47,5.13,28.1-.62,8.95-1.21,17.41,2.98,21.68,2.19,2.23,5.57,3.2,10.31,2.95Zm.05,8.34l-.49-7.32c-4.79.17-8.25-.9-10.58-3.27-2.39-2.44-3.34-6.03-3.61-10.23-.24-3.71.05-7.9.35-12.21.32-4.63.65-9.34.36-13.67-.36-5.4-1.69-10.23-5.19-13.64-4.15-4.04-10.92-5.68-20.66-5-.42.03-.84.06-1.27.1l.53,7.93c.53-.06,1.05-.11,1.55-.14,4.9-.34,8.49.6,10.97,2.9,2.78,2.57,3.83,6.52,4.13,11.18.23,3.62,0,7.67-.22,11.81-.23,4.2-.47,8.44-.21,12.32.53,7.94,3.15,14.35,12.14,15.69l.4.06.08,1.13-.39.11c-8.7,2.54-10.44,9.29-9.92,17.29.26,3.91,1.05,8.11,1.84,12.27.78,4.14,1.54,8.17,1.79,11.84.32,4.72-.21,8.84-2.65,11.81-2.15,2.62-5.58,4.07-10.46,4.41-.48.03-.97.06-1.48.07l.53,7.94c.48-.02.96-.05,1.43-.08,9.57-.67,15.97-3.23,19.53-7.76,3.09-3.95,3.76-9.05,3.39-14.59-.29-4.31-1.21-8.89-2.12-13.4-.86-4.26-1.7-8.4-1.94-12.14-.28-4.24.2-7.95,2.26-10.71,1.97-2.65,5.22-4.18,9.91-4.68"/>
      <g class="cls-26">
        <g class="cls-25">
          <g class="cls-26">
            <path class="cls-97" d="m163.09,69.78l2.79,2.43c-2.46.21-4.5.71-6.16,1.5l-2.79-2.43c1.66-.79,3.7-1.29,6.16-1.5"/>
            <path class="cls-72" d="m156.93,71.28l2.79,2.43c-1.48.71-2.65,1.65-3.53,2.83-.45.6-.81,1.25-1.11,1.95l-2.79-2.43c.29-.7.66-1.35,1.11-1.95.88-1.18,2.05-2.12,3.53-2.83"/>
            <path class="cls-97" d="m152.29,76.06l2.79,2.43c-2.09,4.96-.6,12.35.97,20.11,1.79,8.9,3.64,18.06.67,25.14l-2.79-2.43c2.97-7.08,1.13-16.23-.67-25.14-1.56-7.76-3.05-15.15-.97-20.11"/>
            <path class="cls-72" d="m153.93,121.3l2.79,2.43c-.54,1.29-1.24,2.51-2.14,3.65-1.6,2.04-3.74,3.7-6.43,4.99l-2.79-2.43c2.69-1.28,4.83-2.94,6.43-4.99.89-1.14,1.59-2.36,2.14-3.65"/>
            <path class="cls-97" d="m145.36,129.94l2.79,2.43c-3.6,1.71-8.19,2.76-13.84,3.15-.63.04-1.26.08-1.91.11l-2.79-2.43c.65-.03,1.28-.06,1.91-.11,5.65-.4,10.25-1.44,13.84-3.15"/>
          </g>
        </g>
      </g>
    </g>
  </g>
</svg>